<?xml version="1.0" encoding="UTF-8" standalone="no"?>
<svg
   width="45"
   height="45"
   version="1.1"
   id="svg552"
   sodipodi:docname="king.svg"
   inkscape:version="1.2.1 (9c6d41e410, 2022-07-14)"
   xmlns:inkscape="http://www.inkscape.org/namespaces/inkscape"
   xmlns:sodipodi="http://sodipodi.sourceforge.net/DTD/sodipodi-0.dtd"
   xmlns="http://www.w3.org/2000/svg"
   xmlns:svg="http://www.w3.org/2000/svg">
  <sodipodi:namedview
     id="namedview9"
     pagecolor="#505050"
     bordercolor="#eeeeee"
     borderopacity="1"
     inkscape:showpageshadow="0"
     inkscape:pageopacity="0"
     inkscape:pagecheckerboard="0"
     inkscape:deskcolor="#505050"
     showgrid="false"
     inkscape:zoom="18.6"
     inkscape:cx="22.553763"
     inkscape:cy="22.526882"
     inkscape:window-width="1920"
     inkscape:window-height="1017"
     inkscape:window-x="-8"
     inkscape:window-y="-8"
     inkscape:window-maximized="1"
     inkscape:current-layer="svg552" />
  <defs
     id="defs556" />
  <g
     fill="none"
     fill-rule="evenodd"
     stroke="#000000"
     stroke-linecap="round"
     stroke-linejoin="round"
     stroke-width="1.5"
     id="g550"
     style="fill:#ffe6d5">
    <path
       stroke-linejoin="miter"
       d="M 22.5,11.63 V 6 M 20,8 h 5"
       id="path542"
       style="fill:#ffe6d5" />
    <path
       fill="#fff"
       stroke-linecap="butt"
       stroke-linejoin="miter"
       d="m 22.5,25 c 0,0 4.5,-7.5 3,-10.5 0,0 -1,-2.5 -3,-2.5 -2,0 -3,2.5 -3,2.5 -1.5,3 3,10.5 3,10.5"
       id="path544"
       style="fill:#ffe6d5" />
    <path
       fill="#fff"
       d="m 12.5,37 c 5.5,3.5 14.5,3.5 20,0 v -7 c 0,0 9,-4.5 6,-10.5 -4,-6.5 -13.5,-3.5 -16,4 V 27 23.5 C 20,16 10.5,13 6.5,19.5 c -3,6 6,10.5 6,10.5 v 7"
       id="path546"
       style="fill:#ffe6d5" />
    <path
       d="m 12.5,30 c 5.5,-3 14.5,-3 20,0 m -20,3.5 c 5.5,-3 14.5,-3 20,0 m -20,3.5 c 5.5,-3 14.5,-3 20,0"
       id="path548"
       style="fill:#ffe6d5" />
  </g>
</svg>
