<?xml version="1.0" encoding="UTF-8" standalone="no"?>
<svg
   version="1.1"
   width="45"
   height="45"
   id="svg12"
   sodipodi:docname="knight.svg"
   inkscape:version="1.2.1 (9c6d41e410, 2022-07-14)"
   xmlns:inkscape="http://www.inkscape.org/namespaces/inkscape"
   xmlns:sodipodi="http://sodipodi.sourceforge.net/DTD/sodipodi-0.dtd"
   xmlns="http://www.w3.org/2000/svg"
   xmlns:svg="http://www.w3.org/2000/svg">
  <sodipodi:namedview
     id="namedview10"
     pagecolor="#505050"
     bordercolor="#eeeeee"
     borderopacity="1"
     inkscape:showpageshadow="0"
     inkscape:pageopacity="0"
     inkscape:pagecheckerboard="0"
     inkscape:deskcolor="#505050"
     showgrid="false"
     inkscape:zoom="18.6"
     inkscape:cx="22.553763"
     inkscape:cy="22.526882"
     inkscape:window-width="1920"
     inkscape:window-height="1017"
     inkscape:window-x="-8"
     inkscape:window-y="-8"
     inkscape:window-maximized="1"
     inkscape:current-layer="svg12" />
  <defs
     id="defs16" />
  <g
     style="opacity:1;fill:none;fill-opacity:1;fill-rule:evenodd;stroke:#000000;stroke-width:1.5;stroke-linecap:round;stroke-linejoin:round;stroke-miterlimit:4;stroke-dasharray:none;stroke-opacity:1"
     transform="translate(0,0.3)"
     id="g10">
    <path
       d="m 22,10 c 10.5,1 16.5,8 16,29 H 15 c 0,-9 10,-6.5 8,-21"
       style="fill:#ffffff;stroke:#000000"
       id="path2" />
    <path
       d="m 24,18 c 0.38,2.91 -5.55,7.37 -8,9 -3,2 -2.82,4.34 -5,4 -1.042,-0.94 1.41,-3.04 0,-3 -1,0 0.19,1.23 -1,2 -1,0 -4.003,1 -4,-4 0,-2 6,-12 6,-12 0,0 1.89,-1.9 2,-3.5 -0.73,-0.994 -0.5,-2 -0.5,-3 1,-1 3,2.5 3,2.5 h 2 c 0,0 0.78,-1.992 2.5,-3 1,0 1,3 1,3"
       style="fill:#ffffff;stroke:#000000"
       id="path4" />
    <path
       d="m 9.5,25.5 a 0.5,0.5 0 1 1 -1,0 0.5,0.5 0 1 1 1,0 z"
       style="fill:#000000;stroke:#000000"
       id="path6" />
    <path
       d="m 15,15.5 a 0.5,1.5 0 1 1 -1,0 0.5,1.5 0 1 1 1,0 z"
       transform="matrix(0.866,0.5,-0.5,0.866,9.693,-5.173)"
       style="fill:#000000;stroke:#000000"
       id="path8" />
  </g>
  <path
     style="fill:#e9c6af;stroke-width:0.0537634"
     d="m 15.853976,38.130039 c 0.09919,-1.094542 0.552022,-2.305056 1.224867,-3.27428 0.452298,-0.651529 0.964267,-1.214255 2.339353,-2.571274 0.704401,-0.695145 1.498471,-1.525347 1.7646,-1.844891 1.957362,-2.350233 2.79763,-4.823322 2.846603,-8.378155 l 0.0153,-1.110605 0.250046,-0.510618 c 0.326561,-0.666872 0.472537,-1.224572 0.481274,-1.838708 0.0076,-0.532515 -0.07089,-0.747539 -0.348225,-0.954242 -0.193481,-0.144207 -0.649774,-0.145453 -0.841513,-0.0023 -0.279889,0.208968 -0.332785,0.335852 -0.354205,0.849656 -0.02297,0.551116 -0.161403,0.978006 -0.50988,1.572399 -1.041102,1.775787 -3.613975,4.154166 -7.023271,6.49235 -1.061257,0.727837 -1.979528,1.616071 -2.834414,2.7417 -0.655008,0.862448 -0.847001,1.062487 -1.135081,1.182648 l -0.206054,0.08595 0.03669,-0.123545 c 0.02018,-0.06795 0.146866,-0.36548 0.281522,-0.661179 0.292126,-0.641493 0.389999,-0.945078 0.388411,-1.204781 -0.0027,-0.43714 -0.397871,-0.936875 -0.79068,-0.999832 -0.11152,-0.01787 -0.247451,-0.04161 -0.302069,-0.05275 -0.193241,-0.03941 -0.700274,0.07889 -0.897473,0.209393 -0.3202124,0.211907 -0.4441162,0.532485 -0.4376398,1.132311 0.00347,0.321078 -0.018462,0.530375 -0.061776,0.589611 -0.1024018,0.140043 -1.1915319,0.184705 -1.6010505,0.06566 -0.834921,-0.242718 -1.269306,-1.136831 -1.3231439,-2.723482 -0.024583,-0.724468 -0.024269,-0.726828 0.1702735,-1.280286 0.5448964,-1.550191 2.0906367,-4.592693 4.2115257,-8.289606 1.192756,-2.079088 1.400247,-2.413096 1.748589,-2.814784 1.065274,-1.228413 1.730803,-2.498652 1.796912,-3.42961 0.02831,-0.398646 0.02344,-0.420567 -0.161211,-0.725807 -0.104721,-0.17311 -0.214962,-0.4115196 -0.244978,-0.5297992 -0.08785,-0.3461631 -0.133172,-0.9781904 -0.07282,-1.015489 0.09264,-0.057255 0.698563,0.6619161 1.220366,1.4484582 0.315416,0.475444 0.553596,0.779404 0.642459,0.819893 0.09671,0.04406 0.534412,0.06428 1.388686,0.06414 1.491814,-2.42e-4 1.487893,10e-4 1.757203,-0.573327 0.09473,-0.202033 0.328864,-0.603662 0.520301,-0.8925096 0.386811,-0.5836383 1.071321,-1.3197046 1.152124,-1.2389015 0.09019,0.090191 0.20824,0.7820609 0.241364,1.4146166 0.03865,0.7380785 0.08195,0.9013615 0.292548,1.1031235 0.121203,0.11612 0.234571,0.162444 0.469187,0.191718 2.699813,0.336869 4.527677,0.839896 6.25855,1.722348 5.621146,2.865832 8.451175,9.37728 8.970076,20.638724 0.02929,0.635753 0.0534,2.045027 0.05356,3.131721 l 2.99e-4,1.975806 H 26.524842 15.818502 Z M 9.3766092,27.017595 c 0.8053728,-0.230978 1.1429368,-1.247769 0.6514188,-1.962166 -0.4734073,-0.688074 -1.6112117,-0.679273 -2.0713357,0.01602 -0.6667544,1.007533 0.2606374,2.278621 1.4199169,1.946144 z m 4.9782298,-9.243533 c 0.936096,-0.434937 1.963217,-2.3398 1.752913,-3.25089 -0.160468,-0.695183 -0.795755,-0.995196 -1.468164,-0.693336 -0.796211,0.357439 -1.760573,1.957491 -1.762525,2.924351 -10e-4,0.515298 0.174186,0.844607 0.563797,1.059562 0.170224,0.09392 0.673462,0.07206 0.913979,-0.03969 z"
     id="path191" />
  <path
     style="fill:#ffe6d5;stroke-width:0.0537634"
     d="m 15.86549,38.266129 c 0.113758,-0.965144 0.338071,-1.725896 0.754488,-2.558817 0.48634,-0.97278 0.788893,-1.337476 2.840041,-3.423373 1.574222,-1.600892 2.015178,-2.105728 2.581941,-2.955982 1.3453,-2.01821 1.904017,-4.018515 2.012277,-7.204301 l 0.04111,-1.209678 0.24889,-0.537634 c 0.335167,-0.724002 0.432824,-1.121033 0.436392,-1.774193 0.0044,-0.804091 -0.189038,-1.07142 -0.77525,-1.07142 -0.54673,0 -0.723831,0.220892 -0.805046,1.004104 -0.02863,0.276069 -0.08847,0.605174 -0.132986,0.731344 -0.608043,1.723377 -3.11999,4.247275 -6.884548,6.917302 -1.618958,1.148251 -2.31218,1.796635 -3.426778,3.205128 -0.342296,0.432553 -0.703237,0.846314 -0.80209,0.919469 -0.184087,0.136231 -0.367906,0.221606 -0.367906,0.170874 0,-0.01563 0.139016,-0.347537 0.308926,-0.737561 0.286415,-0.65746 0.308941,-0.73885 0.30914,-1.116956 1.61e-4,-0.358018 -0.01793,-0.434007 -0.148375,-0.622235 -0.08172,-0.117927 -0.241072,-0.266392 -0.354108,-0.329922 -0.613331,-0.344711 -1.585177,-0.09829 -1.8189523,0.461212 -0.041714,0.09984 -0.090361,0.419798 -0.1081032,0.711023 -0.017742,0.291226 -0.052021,0.561478 -0.076174,0.600559 -0.033086,0.05354 -0.2333168,0.07106 -0.8120056,0.07106 -0.6875945,0 -0.7911611,-0.01234 -0.9882341,-0.117801 C 7.2428705,29.047693 6.9186468,28.25244 6.869758,26.875934 6.8419556,26.093137 6.846318,26.047341 6.9901095,25.612493 7.4568187,24.20109 9.228603,20.712511 11.356042,17.016129 c 0.981836,-1.70592 1.246406,-2.121262 1.764635,-2.770267 1.075106,-1.346409 1.564161,-2.32124 1.623634,-3.236382 0.02837,-0.436511 0.02587,-0.447792 -0.196103,-0.887097 C 14.34727,9.7247156 14.320397,9.6259876 14.295386,9.1935484 l -0.02799,-0.483871 0.317564,0.3342157 c 0.17466,0.1838185 0.527017,0.6349127 0.783016,1.0024309 0.255997,0.367519 0.536713,0.744503 0.623812,0.837743 l 0.158362,0.169527 1.372719,-0.01605 1.372719,-0.01604 0.13109,-0.134408 c 0.0721,-0.07393 0.221426,-0.303764 0.331836,-0.510753 0.40113,-0.7520107 1.122411,-1.7172501 1.437501,-1.9237052 0.133005,-0.087148 0.136645,-0.085759 0.192103,0.073328 0.03109,0.089187 0.08335,0.4210403 0.116125,0.7374509 0.181809,1.7550143 0.157655,1.7187683 1.244929,1.8681803 4.112329,0.565113 6.766785,1.741673 9.024408,3.999974 3.282347,3.283333 5.046982,8.410573 5.672357,16.481331 0.07457,0.962353 0.175795,4.411255 0.182648,6.223119 l 0.0026,0.685483 H 26.533287 15.83539 Z M 9.6943324,26.894702 C 10.168966,26.580597 10.382113,25.994099 10.221628,25.443788 10.0496,24.853898 9.6319262,24.545372 9.0053763,24.545372 c -0.4317379,0 -0.7093497,0.118001 -0.977605,0.415538 -0.5666255,0.628475 -0.326308,1.677073 0.4668524,2.037056 0.1019472,0.04627 0.3110944,0.06802 0.5684473,0.05912 0.3404973,-0.01177 0.4438474,-0.03836 0.6312614,-0.162388 z M 14.41429,17.766064 c 0.526728,-0.254985 1.26687,-1.25043 1.564709,-2.104437 0.278493,-0.798539 0.214489,-1.35655 -0.198384,-1.729555 -0.703985,-0.636009 -1.796585,0.0078 -2.542483,1.498125 -0.261055,0.521598 -0.361788,0.895352 -0.361788,1.342363 0,0.45936 0.146052,0.797261 0.424617,0.982382 0.247038,0.16417 0.786051,0.169554 1.113329,0.01112 z"
     id="path185" />
</svg>
