<?xml version="1.0" encoding="UTF-8" standalone="no"?>
<svg
   version="1.1"
   width="45"
   height="45"
   id="svg4"
   sodipodi:docname="pawn.svg"
   inkscape:export-filename="lol\pawn.svg"
   inkscape:export-xdpi="96"
   inkscape:export-ydpi="96"
   inkscape:version="1.2.1 (9c6d41e410, 2022-07-14)"
   xmlns:inkscape="http://www.inkscape.org/namespaces/inkscape"
   xmlns:sodipodi="http://sodipodi.sourceforge.net/DTD/sodipodi-0.dtd"
   xmlns="http://www.w3.org/2000/svg"
   xmlns:svg="http://www.w3.org/2000/svg">
  <defs
     id="defs8" />
  <sodipodi:namedview
     id="namedview6"
     pagecolor="#505050"
     bordercolor="#eeeeee"
     borderopacity="1"
     inkscape:showpageshadow="0"
     inkscape:pageopacity="0"
     inkscape:pagecheckerboard="0"
     inkscape:deskcolor="#505050"
     showgrid="false"
     inkscape:zoom="18.6"
     inkscape:cx="22.553763"
     inkscape:cy="22.526882"
     inkscape:window-width="1920"
     inkscape:window-height="1017"
     inkscape:window-x="-8"
     inkscape:window-y="-8"
     inkscape:window-maximized="1"
     inkscape:current-layer="svg4" />
  <path
     d="m 22.5,9 c -2.21,0 -4,1.79 -4,4 0,0.89 0.29,1.71 0.78,2.38 C 17.33,16.5 16,18.59 16,21 c 0,2.03 0.94,3.84 2.41,5.03 C 15.41,27.09 11,31.58 11,39.5 H 34 C 34,31.58 29.59,27.09 26.59,26.03 28.06,24.84 29,23.03 29,21 29,18.59 27.67,16.5 25.72,15.38 26.21,14.71 26.5,13.89 26.5,13 c 0,-2.21 -1.79,-4 -4,-4 z"
     style="opacity:1;fill:#ffffff;fill-opacity:1;fill-rule:nonzero;stroke:#000000;stroke-width:1.5;stroke-linecap:round;stroke-linejoin:miter;stroke-miterlimit:4;stroke-dasharray:none;stroke-opacity:1"
     id="path2" />
  <path
     style="fill:#e9c6af;stroke-width:0.0537634"
     d="m 11.823943,38.158602 c 0.295901,-4.555391 2.424191,-8.700607 5.487885,-10.688609 0.608304,-0.394722 0.807272,-0.489721 1.747312,-0.834268 0.458333,-0.167991 0.833333,-0.329298 0.833333,-0.35846 0,-0.02916 -0.290322,-0.293957 -0.645161,-0.588431 -1.038246,-0.861618 -1.472692,-1.367747 -1.872944,-2.181978 -0.447097,-0.909527 -0.600815,-1.670298 -0.558706,-2.765101 0.03301,-0.858385 0.16791,-1.41861 0.516519,-2.14513 0.549972,-1.146173 1.298403,-1.924849 2.543952,-2.646755 0.289153,-0.16759 0.526039,-0.316887 0.526413,-0.331772 3.76e-4,-0.01488 -0.147415,-0.232626 -0.32842,-0.483871 -0.609604,-0.846165 -0.83773,-1.53043 -0.779635,-2.338528 0.123465,-1.717385 1.495304,-3.0022257 3.205509,-3.0022257 2.347946,0 3.913212,2.4500527 2.910889,4.5563087 -0.08575,0.1802 -0.304011,0.533201 -0.485015,0.784445 -0.181005,0.251245 -0.328794,0.468987 -0.32842,0.483871 3.77e-4,0.01488 0.23726,0.164182 0.526413,0.331772 1.268236,0.735055 2.014488,1.520575 2.564511,2.699452 0.401544,0.860638 0.483554,1.258608 0.483301,2.345302 -2.15e-4,1.024116 -0.04859,1.305277 -0.360595,2.096774 -0.38218,0.969522 -0.901238,1.633717 -1.982614,2.536985 -0.396519,0.331211 -0.720943,0.624634 -0.720943,0.652053 0,0.02742 0.375,0.187298 0.833333,0.355289 0.94004,0.344547 1.139008,0.439546 1.747312,0.834268 2.155542,1.398711 3.955726,4.002969 4.833451,6.992373 0.341808,1.164148 0.677302,3.174038 0.677302,4.05761 v 0.216583 H 22.492663 11.786401 Z"
     id="path183" />
  <path
     style="fill:#ffe6d5;stroke-width:0.0537634"
     d="m 11.830361,38.346774 c 0.05958,-0.773198 0.196475,-1.800208 0.324273,-2.432796 0.752321,-3.723929 2.756983,-6.923562 5.338844,-8.52131 0.483591,-0.299263 0.705399,-0.404537 1.37749,-0.653779 0.726967,-0.269594 1.04311,-0.426641 1.013608,-0.503521 -0.0149,-0.03883 -0.291864,-0.293167 -0.615475,-0.565193 -1.133971,-0.953207 -1.665452,-1.634152 -2.072286,-2.655059 -0.253219,-0.635425 -0.341976,-1.150724 -0.341976,-1.985405 0,-1.182318 0.211538,-1.972167 0.787629,-2.940882 0.478371,-0.804395 1.151609,-1.438366 2.233444,-2.103178 0.290022,-0.178225 0.527314,-0.346929 0.527314,-0.374898 0,-0.02797 -0.142327,-0.261508 -0.316282,-0.518975 -0.581615,-0.860833 -0.758987,-1.349476 -0.758987,-2.090931 0,-1.839028 1.560041,-3.2997792 3.381674,-3.1664473 1.378806,0.1009197 2.526273,1.0589143 2.885735,2.4092383 0.0997,0.374514 0.09693,1.123741 -0.0056,1.517382 -0.10631,0.408155 -0.280043,0.75152 -0.674211,1.332513 -0.175331,0.258432 -0.318784,0.491971 -0.318784,0.518975 0,0.027 0.237292,0.194918 0.527314,0.373143 0.727631,0.447145 1.118293,0.749914 1.527989,1.184214 0.427948,0.453647 0.612063,0.717082 0.899303,1.286735 0.513142,1.017662 0.62177,1.550144 0.581883,2.852329 -0.02349,0.766803 -0.04101,0.886626 -0.197157,1.348081 -0.418769,1.237592 -0.925952,1.920595 -2.317826,3.121325 -0.251345,0.216827 -0.475962,0.426105 -0.49915,0.465061 -0.04689,0.07877 0.02058,0.112067 0.929257,0.458572 1.056939,0.403039 1.687273,0.769983 2.530303,1.472994 1.246332,1.039329 2.476129,2.735426 3.25053,4.483023 0.681688,1.538372 1.19766,3.721501 1.338163,5.661907 l 0.03017,0.416667 H 22.498939 11.800325 Z"
     id="path180" />
</svg>
