<?xml version="1.0" encoding="UTF-8" standalone="no"?>
<svg
   version="1.1"
   width="45"
   height="45"
   id="svg22"
   sodipodi:docname="queen.svg"
   inkscape:version="1.2.1 (9c6d41e410, 2022-07-14)"
   xmlns:inkscape="http://www.inkscape.org/namespaces/inkscape"
   xmlns:sodipodi="http://sodipodi.sourceforge.net/DTD/sodipodi-0.dtd"
   xmlns="http://www.w3.org/2000/svg"
   xmlns:svg="http://www.w3.org/2000/svg">
  <sodipodi:namedview
     id="namedview27"
     pagecolor="#505050"
     bordercolor="#eeeeee"
     borderopacity="1"
     inkscape:showpageshadow="0"
     inkscape:pageopacity="0"
     inkscape:pagecheckerboard="0"
     inkscape:deskcolor="#505050"
     showgrid="false"
     inkscape:zoom="18.6"
     inkscape:cx="22.553763"
     inkscape:cy="22.526882"
     inkscape:window-width="1920"
     inkscape:window-height="1017"
     inkscape:window-x="-8"
     inkscape:window-y="-8"
     inkscape:window-maximized="1"
     inkscape:current-layer="svg22" />
  <defs
     id="defs26" />
  <g
     style="fill:#ffffff;stroke:#000000;stroke-width:1.5;stroke-linejoin:round"
     id="g20">
    <path
       d="m 9,26 c 8.5,-1.5 21,-1.5 27,0 L 38.5,13.5 31,25 30.7,10.9 25.5,24.5 22.5,10 19.5,24.5 14.3,10.9 14,25 6.5,13.5 Z"
       id="path2" />
    <path
       d="m 9,26 c 0,2 1.5,2 2.5,4 1,1.5 1,1 0.5,3.5 -1.5,1 -1,2.5 -1,2.5 -1.5,1.5 0,2.5 0,2.5 6.5,1 16.5,1 23,0 0,0 1.5,-1 0,-2.5 0,0 0.5,-1.5 -1,-2.5 -0.5,-2.5 -0.5,-2 0.5,-3.5 1,-2 2.5,-2 2.5,-4 -8.5,-1.5 -18.5,-1.5 -27,0 z"
       id="path4" />
    <path
       d="M 11.5,30 C 15,29 30,29 33.5,30"
       style="fill:none"
       id="path6" />
    <path
       d="m 12,33.5 c 6,-1 15,-1 21,0"
       style="fill:none"
       id="path8" />
    <circle
       cx="6"
       cy="12"
       r="2"
       id="circle10" />
    <circle
       cx="14"
       cy="9"
       r="2"
       id="circle12" />
    <circle
       cx="22.5"
       cy="8"
       r="2"
       id="circle14" />
    <circle
       cx="31"
       cy="9"
       r="2"
       id="circle16" />
    <circle
       cx="39"
       cy="12"
       r="2"
       id="circle18" />
  </g>
  <path
     style="fill:#e9c6af;stroke-width:0.0537634"
     d="M 5.5376344,13.124256 C 4.791527,12.798315 4.5544659,11.886393 5.047728,11.239693 5.2335417,10.996079 5.6795299,10.77957 5.9955392,10.77957 c 0.5475097,0 1.1175882,0.481853 1.208799,1.021725 0.084093,0.497741 -0.2313079,1.085173 -0.6959615,1.296225 -0.2558245,0.116199 -0.7356986,0.129415 -0.9707423,0.02674 z"
     id="path201" />
  <path
     style="fill:#e9c6af;stroke-width:0.0537634"
     d="M 13.763441,10.192819 C 13.134828,10.035278 12.70158,9.4260963 12.791534,8.8262397 c 0.07755,-0.5171159 0.536658,-0.9644813 1.06398,-1.0367589 0.685802,-0.093999 1.350263,0.5045207 1.349854,1.2158955 -4.28e-4,0.7457879 -0.747936,1.3613697 -1.441927,1.1874427 z"
     id="path203" />
  <path
     style="fill:#e9c6af;stroke-width:0.0537634"
     d="M 21.967998,9.0787589 C 21.201899,8.6969958 21.053804,7.7028196 21.675184,7.1130671 c 0.439623,-0.4172476 1.210009,-0.4172476 1.649632,0 0.454997,0.4318385 0.514246,1.102367 0.142726,1.6152366 -0.195067,0.2692811 -0.63319,0.4921264 -0.967542,0.4921264 -0.159836,0 -0.348554,-0.050255 -0.532002,-0.1416712 z"
     id="path205" />
  <path
     style="fill:#e9c6af;stroke-width:0.0537634"
     d="m 30.752688,10.192819 c -0.675526,-0.169298 -1.097785,-0.8376635 -0.935755,-1.4811428 0.08955,-0.3556131 0.456375,-0.7476326 0.809277,-0.864848 1.149514,-0.3818073 2.096511,1.0327794 1.289438,1.9261123 -0.311776,0.3450995 -0.782791,0.5151555 -1.16296,0.4198785 z"
     id="path207" />
  <path
     style="fill:#e9c6af;stroke-width:0.0537634"
     d="m 38.521505,13.113209 c -0.372023,-0.161141 -0.661302,-0.547171 -0.729465,-0.973437 -0.07558,-0.472624 0.229086,-1.013535 0.692347,-1.229226 0.371001,-0.172736 0.690384,-0.17 1.049571,0.009 1.154834,0.575478 0.748807,2.286836 -0.540296,2.277283 -0.156191,-0.0012 -0.368662,-0.03878 -0.472157,-0.08361 z"
     id="path209" />
  <path
     style="fill:#e9c6af;stroke-width:0.0537634"
     d="m 34.892473,24.964297 c -0.266129,-0.05302 -0.963054,-0.166829 -1.548722,-0.252907 -0.585668,-0.08608 -1.072233,-0.165225 -1.081255,-0.175882 -0.02074,-0.0245 4.613104,-7.135028 4.636497,-7.114607 0.01553,0.01356 -1.494485,7.628021 -1.514356,7.63633 -0.0046,0.0019 -0.226035,-0.03991 -0.492164,-0.09293 z"
     id="path211" />
  <path
     style="fill:#e9c6af;stroke-width:0.0537634"
     d="m 29.484767,24.30622 c -0.01232,-0.01195 -0.694505,-0.05308 -1.515965,-0.09139 -0.993716,-0.04635 -1.486551,-0.08855 -1.472611,-0.126113 0.01152,-0.03105 0.804595,-2.107668 1.76238,-4.614703 L 30,14.915767 l 0.01262,0.337815 c 0.02607,0.698081 0.175905,7.942339 0.175734,8.496418 l -1.78e-4,0.577957 H 29.84767 c -0.187276,0 -0.350582,-0.0098 -0.362903,-0.02174 z"
     id="path213" />
  <path
     style="fill:#e9c6af;stroke-width:0.0537634"
     d="m 20.400597,24.072581 c -0.0059,-0.09085 2.074634,-10.120262 2.099403,-10.120262 0.02477,0 2.105325,10.029408 2.099403,10.120262 -0.0014,0.02218 -0.946177,0.04032 -2.099403,0.04032 -1.153226,0 -2.097957,-0.01815 -2.099403,-0.04032 z"
     id="path215" />
  <path
     style="fill:#e9c6af;stroke-width:0.0537634"
     d="m 14.81165,23.81071 c -1.66e-4,-0.596546 0.147955,-7.810807 0.175734,-8.559166 L 15,14.911689 l 1.759913,4.6071 c 0.967952,2.533906 1.746766,4.628372 1.730698,4.654371 -0.01607,0.026 -0.191094,0.04746 -0.388945,0.04769 -0.342687,3.76e-4 -2.15566,0.120549 -2.926935,0.193981 l -0.362903,0.03455 z"
     id="path217" />
  <path
     style="fill:#e9c6af;stroke-width:0.0537634"
     d="M 8.8492851,21.263027 C 8.428319,19.158064 8.0916293,17.429059 8.1010858,17.420793 c 0.00946,-0.0083 1.0753345,1.608998 2.3686172,3.593918 2.3353,3.584197 2.350415,3.609194 2.204301,3.645241 -0.127161,0.03137 -2.319282,0.343035 -2.8666649,0.407567 l -0.192661,0.02271 z"
     id="path219" />
  <path
     style="fill:#e9c6af;stroke-width:0.0537634"
     d="m 11.720612,28.859309 c -0.08861,-0.141437 -0.500344,-0.607965 -0.914965,-1.036728 -0.648816,-0.670946 -0.9849967,-1.102013 -0.9144542,-1.172555 0.085413,-0.08541 3.8365392,-0.552005 5.6733232,-0.705688 2.627851,-0.219871 3.349673,-0.245413 6.935484,-0.245413 3.585811,0 4.307633,0.02554 6.935484,0.245413 1.836784,0.153683 5.58791,0.620275 5.673323,0.705688 0.07029,0.07029 -0.261821,0.498151 -0.889293,1.145673 -0.40116,0.413978 -0.810921,0.873656 -0.91058,1.021505 -0.09966,0.14785 -0.186164,0.275688 -0.192233,0.284085 -0.0061,0.0084 -0.120982,-0.0094 -0.255362,-0.03949 -0.39945,-0.08952 -1.925029,-0.262767 -3.076393,-0.349363 -5.276523,-0.396857 -13.518978,-0.26902 -17.133237,0.265729 -0.286183,0.04234 -0.576506,0.09078 -0.645161,0.107644 -0.104538,0.02567 -0.151014,-0.01114 -0.285936,-0.226502 z"
     id="path221" />
  <path
     style="fill:#e9c6af;stroke-width:0.0537634"
     d="m 13.022542,32.331621 c 0.02309,-0.129166 0.04148,-0.476782 0.04087,-0.772481 -9.41e-4,-0.456003 -0.01988,-0.573119 -0.124719,-0.771339 -0.06799,-0.128538 -0.114719,-0.242595 -0.103853,-0.25346 0.07953,-0.07953 2.623241,-0.301717 4.692047,-0.409845 1.714984,-0.08964 8.232223,-0.0896 9.946236,5.1e-5 2.13618,0.111735 4.610826,0.328573 4.693516,0.411263 0.01006,0.01006 -0.03597,0.123453 -0.102274,0.251991 -0.146186,0.283381 -0.196114,0.937632 -0.107766,1.412162 0.03259,0.175034 0.05071,0.326787 0.04026,0.337229 -0.01044,0.01044 -0.41562,-0.02964 -0.900395,-0.08906 -4.174738,-0.511774 -10.03414,-0.607471 -14.725495,-0.240499 -0.968931,0.07579 -2.616834,0.245293 -3.160254,0.325058 l -0.230145,0.03378 z"
     id="path223" />
  <path
     style="fill:#e9c6af;stroke-width:0.0537634"
     d="m 19.596774,38.431491 c -2.745025,-0.08628 -6.087126,-0.347114 -7.868142,-0.614065 -0.384725,-0.05767 -0.430901,-0.07799 -0.523992,-0.230655 -0.05615,-0.09208 -0.102178,-0.210956 -0.102288,-0.264172 -3e-4,-0.144303 0.146639,-0.408992 0.388731,-0.70024 0.245545,-0.295403 0.31938,-0.538545 0.25185,-0.829348 -0.114602,-0.493499 -0.0025,-0.943656 0.328878,-1.320065 0.22814,-0.25918 0.146499,-0.234682 1.288404,-0.386611 2.932667,-0.390187 5.419082,-0.534879 9.166667,-0.533434 3.817698,0.0015 6.464439,0.160902 9.38172,0.565121 l 0.77957,0.108017 0.227694,0.243448 c 0.334065,0.357179 0.455879,0.829697 0.341201,1.323524 -0.06753,0.290803 0.0063,0.533945 0.25185,0.829348 0.242092,0.291248 0.389031,0.555937 0.388731,0.70024 -1.07e-4,0.05322 -0.04614,0.172093 -0.102288,0.264172 -0.09314,0.152751 -0.139045,0.172919 -0.523992,0.230228 -1.823122,0.271415 -4.546978,0.490142 -7.438035,0.597276 -1.257544,0.0466 -4.97518,0.05686 -6.236559,0.01722 z"
     id="path225" />
  <path
     style="fill:#ffe6d5;stroke-width:0.0537634"
     d="M 5.4677679,13.055287 C 5.096727,12.872426 4.8101838,12.391399 4.8130087,11.956128 4.8142979,11.757492 4.9794361,11.351314 5.1239239,11.191392 5.2886235,11.0091 5.719234,10.827227 5.9911232,10.825121 c 0.5962638,-0.0046 1.1862962,0.55037 1.1862962,1.115839 0,0.458231 -0.2845735,0.936086 -0.6649523,1.116588 -0.2419749,0.114825 -0.8096163,0.113596 -1.0446992,-0.0023 z"
     id="path202" />
  <path
     style="fill:#ffe6d5;stroke-width:0.0537634"
     d="m 13.597972,10.111912 c -0.453298,-0.1973814 -0.772107,-0.66076 -0.774211,-1.1252922 -0.0037,-0.8174513 0.897323,-1.4006977 1.641605,-1.0626345 0.281239,0.1277428 0.584573,0.4839946 0.669072,0.785796 0.244956,0.8748972 -0.721604,1.7569497 -1.536466,1.4021307 z"
     id="path204" />
  <path
     style="fill:#ffe6d5;stroke-width:0.0537634"
     d="M 21.908559,8.9919355 C 21.40447,8.689239 21.18674,8.0776855 21.400701,7.5654775 c 0.338403,-0.8101102 1.41707,-0.9782417 2.001994,-0.31205 0.311707,0.3550141 0.36024,0.8217617 0.132251,1.2718781 -0.201204,0.3972368 -0.59514,0.6413611 -1.034946,0.6413611 -0.243444,0 -0.35567,-0.033155 -0.591441,-0.1747312 z"
     id="path206" />
  <path
     style="fill:#ffe6d5;stroke-width:0.0537634"
     d="M 30.523119,10.074452 C 30.243321,9.9359551 29.937633,9.5904944 29.865677,9.3314705 29.74743,8.9058111 29.827713,8.5833269 30.140663,8.2268974 c 0.557814,-0.6353149 1.520243,-0.505734 1.89972,0.2557773 0.310584,0.6232618 0.07085,1.2655272 -0.58877,1.5773633 -0.333351,0.157592 -0.62994,0.162196 -0.928494,0.01441 z"
     id="path208" />
  <path
     style="fill:#ffe6d5;stroke-width:0.0537634"
     d="m 38.494624,13.060785 c -0.76939,-0.399334 -0.898728,-1.438445 -0.243625,-1.957296 0.264126,-0.209192 0.435552,-0.270156 0.759665,-0.270156 0.626037,0 1.177508,0.535899 1.177508,1.144259 0,0.424407 -0.271825,0.86958 -0.64822,1.061603 -0.258825,0.132042 -0.810566,0.143438 -1.045328,0.02159 z"
     id="path210" />
  <path
     style="fill:#ffe6d5;stroke-width:0.0537634"
     d="m 34.569892,24.889498 c -0.384408,-0.06896 -1.053399,-0.181184 -1.486646,-0.249379 l -0.787722,-0.12399 0.642234,-0.994624 c 2.181401,-3.378323 3.83754,-5.873717 3.851196,-5.802804 0.0087,0.04517 -0.263965,1.49629 -0.605919,3.22472 -0.802226,4.054913 -0.80046,4.046597 -0.861938,4.060037 -0.02875,0.0063 -0.366796,-0.045 -0.751205,-0.11396 z"
     id="path212" />
  <path
     style="fill:#ffe6d5;stroke-width:0.0537634"
     d="m 29.704301,24.296208 c -0.04435,-0.0106 -0.76903,-0.05707 -1.610389,-0.103257 -0.841359,-0.04619 -1.537423,-0.09166 -1.546809,-0.101045 -0.0094,-0.0094 0.75158,-2.029788 1.691034,-4.489783 l 1.7081,-4.472717 0.03476,0.472931 c 0.01912,0.260113 0.06143,1.972932 0.09402,3.806265 0.03259,1.833333 0.07318,3.690188 0.0902,4.126344 l 0.03094,0.793011 -0.205605,-0.0062 c -0.113083,-0.0034 -0.241896,-0.01491 -0.286251,-0.02551 z"
     id="path214" />
  <path
     style="fill:#ffe6d5;stroke-width:0.0537634"
     d="m 21.384409,24.071311 c -0.756856,-0.01201 -0.92742,-0.0287 -0.92742,-0.09079 0,-0.09317 0.73382,-3.693355 1.397626,-6.856867 0.269905,-1.28629 0.517706,-2.477823 0.550668,-2.64785 0.03296,-0.170026 0.07559,-0.309139 0.09472,-0.309139 0.01913,0 0.06177,0.139113 0.09475,0.309139 0.03298,0.170027 0.338298,1.639785 0.678484,3.266129 0.853289,4.079359 1.292319,6.259202 1.265533,6.283538 -0.03513,0.03191 -2.121136,0.06223 -3.154356,0.04584 z"
     id="path216" />
  <path
     style="fill:#ffe6d5;stroke-width:0.0537634"
     d="m 14.834636,23.56915 c 0.01697,-0.484538 0.05749,-2.380978 0.09005,-4.214311 0.03256,-1.833334 0.07493,-3.534838 0.09414,-3.781121 l 0.03493,-0.447787 0.530783,1.388647 c 0.837647,2.191475 2.527211,6.664621 2.711086,7.177644 l 0.167171,0.466415 -0.333552,0.02774 c -0.183454,0.01526 -0.955039,0.06733 -1.714635,0.115705 -0.759595,0.04838 -1.432775,0.10148 -1.495955,0.118002 -0.114774,0.03001 -0.114847,0.02928 -0.08403,-0.850938 z"
     id="path218" />
  <path
     style="fill:#ffe6d5;stroke-width:0.0537634"
     d="M 9.6212177,25.006795 C 9.5572004,24.820813 8.1960321,17.796661 8.209977,17.724251 c 0.00921,-0.0478 0.7284941,1.001138 1.5984186,2.330978 2.2547464,3.446794 2.9386084,4.528391 2.8919314,4.573884 -0.0067,0.0065 -0.641187,0.09909 -1.410004,0.205728 -0.768818,0.106635 -1.4541922,0.202574 -1.5230551,0.213198 -0.068863,0.01062 -0.1345854,-0.0079 -0.1460502,-0.04124 z"
     id="path220" />
  <path
     style="fill:#ffe6d5;stroke-width:0.0537634"
     d="m 11.600769,28.669355 c -0.177756,-0.214382 -0.560281,-0.643817 -0.850056,-0.954301 -0.509027,-0.545406 -0.8313582,-0.941972 -0.8313582,-1.022827 0,-0.115474 4.1954362,-0.613906 7.0967742,-0.843121 1.779616,-0.140595 9.18706,-0.140645 10.967742,-7.4e-5 2.916228,0.230215 7.096774,0.726921 7.096774,0.843195 0,0.084 -0.331172,0.486936 -0.90693,1.103472 -0.331369,0.354839 -0.704402,0.784626 -0.828962,0.955082 -0.221149,0.302634 -0.231529,0.309286 -0.441527,0.282918 -0.11828,-0.01485 -0.577957,-0.07434 -1.021506,-0.132198 -2.080073,-0.271328 -4.2218,-0.380651 -8.172043,-0.417136 -4.836286,-0.04467 -8.679953,0.119525 -11.015905,0.47058 -0.381329,0.05731 -0.710534,0.104195 -0.731568,0.104195 -0.02103,0 -0.18368,-0.175403 -0.361435,-0.389785 z"
     id="path222" />
  <path
     style="fill:#ffe6d5;stroke-width:0.0537634"
     d="m 13.076966,31.830487 c 0.02698,-0.643611 0.01938,-0.728524 -0.08672,-0.96839 -0.06397,-0.144605 -0.09742,-0.2818 -0.07435,-0.304876 0.09896,-0.09896 3.186085,-0.346527 5.283028,-0.423661 1.767011,-0.065 6.835139,-0.065 8.60215,0 2.133275,0.07847 5.184298,0.324931 5.286401,0.427035 0.02493,0.02493 9.3e-4,0.126738 -0.05333,0.226238 -0.08263,0.151508 -0.09866,0.305422 -0.09866,0.947053 0,0.730596 -0.005,0.766102 -0.107527,0.76526 -0.05914,-4.84e-4 -0.50672,-0.04725 -0.994624,-0.10391 -3.842196,-0.446227 -9.376437,-0.554826 -13.682795,-0.268498 -0.874513,0.05815 -3.376917,0.298036 -3.825769,0.366752 l -0.277382,0.04247 z"
     id="path224" />
  <path
     style="fill:#ffe6d5;stroke-width:0.0537634"
     d="m 18.763441,38.379785 c -3.174806,-0.156777 -6.915899,-0.493759 -7.361212,-0.663066 -0.328623,-0.124943 -0.32783,-0.470504 0.0021,-0.918696 0.363083,-0.493214 0.396016,-0.5992 0.359816,-1.157956 -0.02706,-0.417646 -0.01581,-0.51501 0.08714,-0.754334 0.06502,-0.151136 0.197758,-0.351891 0.294979,-0.446121 0.205619,-0.199295 0.390772,-0.2362 2.289205,-0.456293 2.758696,-0.319826 5.531756,-0.43719 9.193548,-0.389097 3.392281,0.04455 5.035233,0.145654 7.661291,0.471447 1.336815,0.165848 1.345043,0.167659 1.52111,0.334815 0.09736,0.09244 0.240029,0.296843 0.317035,0.454238 0.129866,0.265436 0.137669,0.321973 0.107683,0.780241 -0.03662,0.559625 0.0053,0.689067 0.393205,1.215617 0.355924,0.483075 0.273464,0.811992 -0.229261,0.914495 -0.367339,0.0749 -1.862726,0.247078 -3.050633,0.351252 -2.515864,0.22063 -3.4843,0.25601 -7.365591,0.269089 -2.114247,0.0071 -4.013441,0.0046 -4.22043,-0.0056 z"
     id="path226" />
</svg>
