<?xml version="1.0" encoding="UTF-8" standalone="no"?>
<svg
   version="1.1"
   width="45"
   height="45"
   id="svg18"
   sodipodi:docname="rook.svg"
   inkscape:version="1.2.1 (9c6d41e410, 2022-07-14)"
   xmlns:inkscape="http://www.inkscape.org/namespaces/inkscape"
   xmlns:sodipodi="http://sodipodi.sourceforge.net/DTD/sodipodi-0.dtd"
   xmlns="http://www.w3.org/2000/svg"
   xmlns:svg="http://www.w3.org/2000/svg">
  <sodipodi:namedview
     id="namedview18"
     pagecolor="#505050"
     bordercolor="#eeeeee"
     borderopacity="1"
     inkscape:showpageshadow="0"
     inkscape:pageopacity="0"
     inkscape:pagecheckerboard="0"
     inkscape:deskcolor="#505050"
     showgrid="false"
     inkscape:zoom="18.6"
     inkscape:cx="22.553763"
     inkscape:cy="22.526882"
     inkscape:window-width="1920"
     inkscape:window-height="1017"
     inkscape:window-x="-8"
     inkscape:window-y="-8"
     inkscape:window-maximized="1"
     inkscape:current-layer="svg18" />
  <defs
     id="defs22" />
  <g
     style="opacity:1;fill:#ffffff;fill-opacity:1;fill-rule:evenodd;stroke:#000000;stroke-width:1.5;stroke-linecap:round;stroke-linejoin:round;stroke-miterlimit:4;stroke-dasharray:none;stroke-opacity:1"
     transform="translate(0,0.3)"
     id="g16">
    <path
       d="M 9,39 H 36 V 36 H 9 Z"
       style="stroke-linecap:butt"
       id="path2" />
    <path
       d="m 12,36 v -4 h 21 v 4 z"
       style="stroke-linecap:butt"
       id="path4" />
    <path
       d="M 11,14 V 9 h 4 v 2 h 5 V 9 h 5 v 2 h 5 V 9 h 4 v 5"
       style="stroke-linecap:butt"
       id="path6" />
    <path
       d="m 34,14 -3,3 H 14 l -3,-3"
       id="path8" />
    <path
       d="M 31,17 V 29.5 H 14 V 17"
       style="stroke-linecap:butt;stroke-linejoin:miter"
       id="path10" />
    <path
       d="m 31,29.5 1.5,2.5 h -20 L 14,29.5"
       id="path12" />
    <path
       d="M 11,14 H 34"
       style="fill:none;stroke:#000000;stroke-linejoin:miter"
       id="path14" />
  </g>
  <path
     style="fill:#e9c6af;stroke-width:0.0537634"
     d="M 14.758065,23.172043 V 17.33871 H 22.5 30.241935 v 5.833333 5.833333 H 22.5 14.758065 Z"
     id="path322" />
  <path
     style="fill:#e9c6af;stroke-width:0.0537634"
     d="M 13.629032,15.806452 12.90472,15.080645 H 22.5 32.09528 l -0.724312,0.725807 -0.724313,0.725806 H 22.5 14.353345 Z"
     id="path324" />
  <path
     style="fill:#e9c6af;stroke-width:0.0537634"
     d="m 11.801075,11.801075 v -1.72043 h 1.209678 1.209677 l 8.6e-5,0.685484 c 9.7e-5,0.780194 0.06119,0.97491 0.370771,1.181724 l 0.182679,0.122039 H 17.5 20.226034 l 0.182682,-0.122039 c 0.309582,-0.206814 0.370675,-0.40153 0.370771,-1.181724 l 8.3e-5,-0.685484 H 22.5 24.22043 l 1.08e-4,0.685484 c 1.07e-4,0.780194 0.06119,0.97491 0.37077,1.181724 l 0.182658,0.122039 H 27.5 30.226034 l 0.182682,-0.122039 c 0.309582,-0.206814 0.370675,-0.40153 0.370771,-1.181724 l 8.3e-5,-0.685484 h 1.209677 1.209678 v 1.72043 1.72043 H 22.5 11.801075 Z"
     id="path326" />
  <path
     style="fill:#e9c6af;stroke-width:0.0537634"
     d="m 13.897849,31.509084 c 0,-0.01275 0.193519,-0.345407 0.430041,-0.739248 0.236522,-0.39384 0.43007,-0.770508 0.430107,-0.83704 l 6.8e-5,-0.120968 H 22.5 30.241935 l 5.4e-5,0.120968 c 3.7e-5,0.06653 0.193586,0.4432 0.430108,0.83704 0.236535,0.393841 0.430054,0.726502 0.430054,0.739248 0,0.01275 -3.870968,0.02317 -8.602151,0.02317 -4.731183,0 -8.602151,-0.01043 -8.602151,-0.02317 z"
     id="path328" />
  <path
     style="fill:#e9c6af;stroke-width:0.0537634"
     d="M 12.768817,34.301075 V 33.091398 H 22.5 32.231183 v 1.209677 1.209678 H 22.5 12.768817 Z"
     id="path330" />
  <path
     style="fill:#e9c6af;stroke-width:0.0537634"
     d="M 9.7580645,37.795699 V 37.069892 H 22.5 35.241935 v 0.725807 0.725806 H 22.5 9.7580645 Z"
     id="path332" />
  <path
     style="fill:#ffe6d5;stroke-width:0.0537634"
     d="m 11.801075,11.801075 v -1.72043 h 1.204637 1.204636 l 0.01848,0.766129 c 0.02003,0.830151 0.04931,0.923696 0.351543,1.122973 0.141807,0.0935 0.316103,0.09944 2.919627,0.09944 2.603524,0 2.77782,-0.0059 2.919627,-0.09944 0.302233,-0.199277 0.331517,-0.292822 0.351543,-1.122973 l 0.01848,-0.766129 H 22.5 24.210348 l 0.01848,0.766129 c 0.02003,0.830151 0.04931,0.923696 0.351543,1.122973 0.141807,0.0935 0.316103,0.09944 2.919627,0.09944 2.603524,0 2.77782,-0.0059 2.919627,-0.09944 0.302233,-0.199277 0.331517,-0.292822 0.351543,-1.122973 l 0.01848,-0.766129 h 1.204636 1.204637 v 1.72043 1.72043 H 22.5 11.801075 Z"
     id="path193" />
  <path
     style="fill:#ffe6d5;stroke-width:0.0537634"
     d="M 13.682796,15.806452 12.958483,15.080645 H 22.5 32.041517 l -0.724313,0.725807 -0.724312,0.725806 H 22.5 14.407108 Z"
     id="path195" />
  <path
     style="fill:#ffe6d5;stroke-width:0.0537634"
     d="M 14.758065,23.172043 V 17.33871 H 22.5 30.241935 v 5.833333 5.833333 H 22.5 14.758065 Z"
     id="path197" />
  <path
     style="fill:#ffe6d5;stroke-width:0.0537634"
     d="m 17.459909,31.478495 -3.507833,-0.02688 0.273264,-0.454568 c 0.368352,-0.612744 0.532725,-0.944715 0.532725,-1.075903 V 29.811828 H 22.5 30.241935 v 0.109314 c 0,0.13102 0.164315,0.463056 0.531123,1.073257 0.149414,0.248556 0.266439,0.455812 0.260055,0.460568 -0.03719,0.0277 -10.631907,0.04607 -13.573204,0.02353 z"
     id="path199" />
  <path
     style="fill:#ffe6d5;stroke-width:0.0537634"
     d="M 12.768817,34.301075 V 33.091398 H 22.5 32.231183 v 1.209677 1.209678 H 22.5 12.768817 Z"
     id="path201" />
  <path
     style="fill:#ffe6d5;stroke-width:0.0537634"
     d="M 9.7580645,37.795699 V 37.069892 H 22.5 35.241935 v 0.725807 0.725806 H 22.5 9.7580645 Z"
     id="path203" />
</svg>
