<?xml version="1.0" encoding="UTF-8" standalone="no"?>
<svg
   version="1.1"
   width="45"
   height="45"
   id="svg14"
   xmlns="http://www.w3.org/2000/svg"
   xmlns:svg="http://www.w3.org/2000/svg">
  <defs
     id="defs18" />
  <g
     style="opacity:1;fill:none;fill-opacity:1;fill-rule:evenodd;stroke:#000000;stroke-width:1.5;stroke-linecap:round;stroke-linejoin:round;stroke-miterlimit:4;stroke-dasharray:none;stroke-opacity:1"
     transform="translate(0,0.6)"
     id="g12">
    <g
       style="fill:#000000;stroke:#000000;stroke-linecap:butt"
       id="g8">
      <path
         d="m 9,36 c 3.39,-0.97 10.11,0.43 13.5,-2 3.39,2.43 10.11,1.03 13.5,2 0,0 1.65,0.54 3,2 -0.68,0.97 -1.65,0.99 -3,0.5 -3.39,-0.97 -10.11,0.46 -13.5,-1 C 19.11,38.96 12.39,37.53 9,38.5 7.65,38.99 6.68,38.97 6,38 7.35,36.54 9,36 9,36 Z"
         id="path2" />
      <path
         d="m 15,32 c 2.5,2.5 12.5,2.5 15,0 0.5,-1.5 0,-2 0,-2 0,-2.5 -2.5,-4 -2.5,-4 5.5,-1.5 6,-11.5 -5,-15.5 -11,4 -10.5,14 -5,15.5 0,0 -2.5,1.5 -2.5,4 0,0 -0.5,0.5 0,2 z"
         id="path4" />
      <path
         d="m 25,8 a 2.5,2.5 0 1 1 -5,0 2.5,2.5 0 1 1 5,0 z"
         id="path6" />
    </g>
    <path
       d="m 17.5,26 h 10 M 15,30 H 30 M 22.5,15.5 v 5 M 20,18 h 5"
       style="fill:none;stroke:#ffffff;stroke-linejoin:miter"
       id="path10" />
  </g>
  <path
     style="fill:#1a1a1a;stroke-width:0.0438169"
     d="m 14.306539,30.077972 c 5.11e-4,-0.214919 0.16551,-0.834201 0.324761,-1.218912 0.261166,-0.630911 0.631902,-1.19369 1.135825,-1.72419 0.167537,-0.176373 0.296797,-0.326487 0.287245,-0.333586 -0.0096,-0.0071 -0.184969,-0.123369 -0.389813,-0.258375 -1.274667,-0.840093 -2.204553,-2.280513 -2.542369,-3.938205 -0.402206,-1.97366 0.02045,-4.1662 1.181278,-6.127881 0.476521,-0.805275 1.040327,-1.524002 1.775729,-2.263662 1.128674,-1.135206 2.355862,-2.020977 3.857514,-2.784309 0.289192,-0.147005 0.531587,-0.272064 0.538656,-0.277911 0.0071,-0.0058 -0.101887,-0.126437 -0.242125,-0.267981 -0.447149,-0.451311 -0.763242,-1.0262021 -0.890901,-1.6203157 -0.0837,-0.3895315 -0.06398,-1.0723701 0.04271,-1.4787792 0.145589,-0.5546049 0.406024,-0.9999602 0.836472,-1.4304084 0.645462,-0.6454617 1.255892,-0.9160794 2.150076,-0.9531778 0.620443,-0.025741 1.054923,0.06782 1.618181,0.34846 0.299006,0.1489778 0.450203,0.2636117 0.766797,0.581365 0.65003,0.6524118 0.948797,1.3516137 0.955481,2.2361084 0.0069,0.9076076 -0.298103,1.6545007 -0.945822,2.3164517 -0.139297,0.142357 -0.247749,0.263715 -0.241005,0.269684 0.0067,0.006 0.199578,0.104358 0.428522,0.218642 2.208814,1.102598 4.105802,2.683357 5.310236,4.425018 1.478682,2.138235 2.063508,4.602074 1.614894,6.803459 -0.338948,1.663247 -1.267054,3.102219 -2.543436,3.943442 -0.204844,0.135006 -0.38026,0.251275 -0.389813,0.258375 -0.0096,0.0071 0.121732,0.159344 0.291743,0.338322 0.763231,0.803483 1.32747,1.910579 1.436141,2.817854 l 0.03046,0.254322 -0.147509,-0.139718 c -0.08113,-0.07684 -0.203016,-0.160644 -0.270858,-0.186222 -0.08527,-0.03215 -2.488929,-0.0465 -7.785609,-0.0465 -5.29668,0 -7.700342,0.01436 -7.785609,0.0465 -0.06784,0.02558 -0.187431,0.108316 -0.265754,0.183863 l -0.142405,0.137359 3.06e-4,-0.129092 z m 13.59169,-2.815088 c 0.50499,-0.314003 0.483293,-1.090583 -0.0377,-1.349269 -0.162614,-0.08074 -0.34135,-0.08353 -5.360531,-0.08353 -5.019181,0 -5.197917,0.0028 -5.360531,0.08353 -0.31062,0.154232 -0.476199,0.5432 -0.381283,0.895689 0.05842,0.216946 0.295358,0.46953 0.495016,0.527696 0.08632,0.02515 2.172279,0.03852 5.312523,0.03404 l 5.1704,-0.0074 z M 22.95584,21.717498 c 0.294397,-0.224548 0.309339,-0.287698 0.324901,-1.373214 l 0.01394,-0.972658 0.997374,-0.01322 0.997375,-0.01322 0.160831,-0.122761 c 0.213187,-0.162726 0.308674,-0.355179 0.308674,-0.622127 0,-0.266948 -0.09549,-0.4594 -0.308674,-0.622126 L 25.28943,17.85541 24.289066,17.84217 23.288701,17.82893 23.288438,16.943927 c -1.31e-4,-0.486752 -0.02061,-0.958333 -0.0455,-1.047957 -0.207056,-0.74554 -1.278863,-0.74554 -1.485919,0 -0.02489,0.08962 -0.04537,0.561205 -0.0455,1.047957 l -2.63e-4,0.885003 -1.000365,0.01324 -1.000364,0.01324 -0.160831,0.122762 c -0.213187,0.162726 -0.308674,0.355178 -0.308674,0.622126 0,0.266948 0.09549,0.459401 0.308674,0.622127 l 0.160831,0.122761 1.000364,0.01324 1.000365,0.01324 2.63e-4,0.885004 c 1.32e-4,0.486751 0.02061,0.958332 0.0455,1.047956 0.05606,0.201868 0.213371,0.393412 0.40218,0.489713 0.219676,0.112045 0.59665,0.07568 0.79662,-0.07684 z"
     id="path208" />
  <path
     style="fill:#1a1a1a;stroke-width:0.0438169"
     d="M 7.1180888,40.113867 C 6.5651147,40.027619 6.0209047,39.729168 5.6425541,39.304669 5.3726193,39.001808 5.2799416,38.822404 5.2799416,38.602726 c 0,-0.260316 0.1150731,-0.435591 0.5699097,-0.868066 0.9343831,-0.888444 2.2520696,-1.662338 3.2421643,-1.904167 0.9876014,-0.241219 1.7656354,-0.306437 4.2940604,-0.359945 3.287179,-0.06957 4.496394,-0.141344 5.628653,-0.334119 0.415094,-0.07067 0.622963,-0.144829 0.412806,-0.147268 -0.224481,-0.0026 -1.157158,-0.183147 -1.808824,-0.350142 -1.381539,-0.354031 -2.329501,-0.80657 -3.040734,-1.451588 -0.200538,-0.181869 -0.232276,-0.237487 -0.332203,-0.582169 -0.2156,-0.743678 -0.249457,-1.36721 -0.101414,-1.867677 l 0.05833,-0.197176 0.03354,0.175268 c 0.04746,0.247992 0.169712,0.426102 0.369567,0.538426 l 0.172444,0.09692 H 22.5 30.221759 l 0.172444,-0.09692 c 0.199855,-0.112324 0.322106,-0.290434 0.369567,-0.538426 l 0.03354,-0.175268 0.05911,0.197176 c 0.148528,0.495476 0.10431,1.21708 -0.118853,1.939598 -0.107817,0.349069 -0.303766,0.562008 -0.854412,0.928493 -0.610533,0.406343 -1.294932,0.702688 -2.222162,0.962199 -0.567019,0.158696 -1.459448,0.347593 -1.888979,0.399832 -0.140387,0.01708 -0.238975,0.04602 -0.219084,0.06433 0.05167,0.04755 0.726339,0.16094 1.416398,0.238048 0.798571,0.08923 2.155168,0.147786 4.644596,0.200468 2.105322,0.04455 2.62926,0.07476 3.461539,0.199556 1.245171,0.18671 2.054038,0.529149 3.247785,1.374968 0.487501,0.345415 1.229263,1.04255 1.325841,1.246075 0.09013,0.189939 0.09057,0.432294 0.0011,0.620787 -0.11419,0.240636 -0.555861,0.686716 -0.855518,0.864056 -0.454662,0.269074 -0.768476,0.349883 -1.35312,0.34844 -0.520566,-0.0013 -0.534541,-0.004 -1.730769,-0.337706 -1.077288,-0.300514 -2.230877,-0.358922 -5.74002,-0.290626 -4.018163,0.0782 -5.520472,-0.02089 -6.977848,-0.460251 L 22.5,38.887238 22.00706,39.035847 c -1.45624,0.439021 -2.964596,0.538799 -6.95594,0.460134 -3.421752,-0.06744 -4.658944,-0.0095 -5.6629351,0.264967 -1.0554474,0.288587 -1.3191942,0.347234 -1.6544945,0.367895 -0.2048442,0.01262 -0.4818649,0.0059 -0.6156016,-0.01498 z"
     id="path210" />
</svg>
