<?xml version="1.0" encoding="UTF-8" standalone="no"?>
<svg
   version="1.1"
   width="45"
   height="45"
   id="svg15"
   xmlns="http://www.w3.org/2000/svg"
   xmlns:svg="http://www.w3.org/2000/svg">
  <defs
     id="defs19" />
  <g
     style="fill:none;fill-opacity:1;fill-rule:evenodd;stroke:#000000;stroke-width:1.5;stroke-linecap:round;stroke-linejoin:round;stroke-miterlimit:4;stroke-dasharray:none;stroke-opacity:1"
     id="g13">
    <path
       d="M 22.5,11.63 V 6"
       style="fill:none;stroke:#000000;stroke-linejoin:miter"
       id="path6570" />
    <path
       d="m 22.5,25 c 0,0 4.5,-7.5 3,-10.5 0,0 -1,-2.5 -3,-2.5 -2,0 -3,2.5 -3,2.5 -1.5,3 3,10.5 3,10.5"
       style="fill:#000000;fill-opacity:1;stroke-linecap:butt;stroke-linejoin:miter"
       id="path3" />
    <path
       d="m 12.5,37 c 5.5,3.5 14.5,3.5 20,0 v -7 c 0,0 9,-4.5 6,-10.5 -4,-6.5 -13.5,-3.5 -16,4 V 27 23.5 C 20,16 10.5,13 6.5,19.5 c -3,6 6,10.5 6,10.5 v 7"
       style="fill:#000000;stroke:#000000"
       id="path5" />
    <path
       d="m 20,8 h 5"
       style="fill:none;stroke:#000000;stroke-linejoin:miter"
       id="path7" />
    <path
       d="m 32,29.5 c 0,0 8.5,-4 6.03,-9.65 C 34.15,14 25,18 22.5,24.5 v 2.1 -2.1 C 20,18 10.85,14 6.97,19.85 4.5,25.5 13,29.5 13,29.5"
       style="fill:none;stroke:#ffffff"
       id="path9" />
    <path
       d="m 12.5,30 c 5.5,-3 14.5,-3 20,0 m -20,3.5 c 5.5,-3 14.5,-3 20,0 m -20,3.5 c 5.5,-3 14.5,-3 20,0"
       style="fill:none;stroke:#ffffff"
       id="path11" />
  </g>
  <path
     style="fill:#1a1a1a;stroke-width:0.0438169"
     d="M 12.594584,28.40053 C 9.7497117,26.76312 7.9355554,24.843008 7.4261552,22.93024 7.1499388,21.893063 7.3426427,20.623701 7.8835179,19.917541 c 1.452907,-1.896899 3.7653951,-2.559486 6.4443201,-1.846461 1.375134,0.366006 2.97488,1.222075 4.162912,2.227691 0.525644,0.444934 1.302301,1.236806 1.68621,1.719243 0.424047,0.532876 0.925216,1.320648 1.234365,1.940261 l 0.278062,0.557304 0.02599,1.139241 c 0.0143,0.626582 0.04049,1.180741 0.05822,1.231463 0.03139,0.08982 0.01701,0.09303 -0.551794,0.123098 -2.714028,0.143482 -5.264773,0.663308 -7.339066,1.495657 -0.327417,0.131382 -0.617473,0.23858 -0.644569,0.238218 -0.0271,-3.51e-4 -0.316707,-0.154589 -0.643581,-0.342726 z"
     id="path239" />
  <path
     style="fill:#1a1a1a;stroke-width:0.0438169"
     d="m 11.754523,31.81519 -0.01158,-1.394639 -0.503653,-0.30579 C 9.9971667,29.360613 8.8238604,28.454397 7.9055294,27.539896 6.444912,26.08537 5.60614,24.669571 5.2728516,23.096088 c -0.1235251,-0.583172 -0.1327678,-1.576628 -0.020003,-2.15 0.1610695,-0.818983 0.448418,-1.560826 0.8202498,-2.117625 1.1617105,-1.739603 2.8082614,-2.918356 4.7496866,-3.400264 1.07931,-0.267911 2.475526,-0.284277 3.72444,-0.04366 1.160509,0.223587 2.517143,0.768591 3.587584,1.441251 0.213922,0.134427 0.393534,0.238695 0.39914,0.231705 0.0056,-0.007 -0.0051,-0.131013 -0.02376,-0.275609 -0.08848,-0.685122 -0.01911,-1.619798 0.160036,-2.156194 0.313808,-0.939607 1.094263,-2.065877 1.816865,-2.621907 0.303023,-0.23317 0.734762,-0.468718 1.037983,-0.566302 l 0.230039,-0.07403 V 10.052467 8.74148 L 20.867819,8.7412347 C 19.877184,8.740963 19.699639,8.7103483 19.493567,8.5042769 19.161515,8.1722253 19.218693,7.6576373 19.616943,7.3939211 l 0.181685,-0.1203086 0.978242,-0.014598 0.978242,-0.014598 2.63e-4,-0.6207473 c 1.16e-4,-0.3414109 0.02167,-0.6996177 0.04788,-0.7960149 0.08649,-0.3180983 0.378581,-0.5477118 0.696744,-0.5477118 0.318163,0 0.610254,0.2296135 0.696744,0.5477118 0.02621,0.096397 0.04777,0.454604 0.0479,0.7960149 l 2.44e-4,0.6207473 0.978242,0.014598 0.978242,0.014598 0.181685,0.1203096 c 0.39825,0.2637162 0.455428,0.7783042 0.123376,1.1103558 -0.206072,0.2060714 -0.383617,0.236685 -1.374252,0.2369578 L 23.244888,8.74148 v 1.308255 1.308255 l 0.266476,0.09099 c 0.492191,0.168059 0.906811,0.44077 1.379577,0.9074 0.628958,0.620794 1.176882,1.484974 1.438834,2.269317 0.179144,0.536396 0.248517,1.471072 0.160036,2.156194 -0.01867,0.144596 -0.02937,0.26862 -0.02376,0.275609 0.0056,0.007 0.185218,-0.09817 0.39914,-0.233688 0.484918,-0.307194 1.47562,-0.793258 2.053991,-1.007743 1.945734,-0.72156 4.04439,-0.796647 5.87147,-0.210072 0.498897,0.160168 1.425681,0.613628 1.86222,0.911152 1.110441,0.756823 2.192928,1.965615 2.627393,2.933956 0.372708,0.830695 0.54479,1.63813 0.542396,2.545002 -0.0027,1.003457 -0.183961,1.750841 -0.669673,2.760468 -0.920446,1.913284 -2.814736,3.792636 -5.413942,5.371246 l -0.481987,0.292732 -0.01158,1.394639 -0.01158,1.394638 -0.107715,-0.158516 C 32.861188,32.661341 30.637975,31.733277 28.853457,31.267694 26.802659,30.73264 24.877688,30.500062 22.5,30.500062 c -1.506257,0 -2.234906,0.04516 -3.538642,0.219325 -2.415255,0.322648 -4.628737,0.976991 -6.463775,1.910802 -0.393738,0.200365 -0.541578,0.300177 -0.623763,0.421123 l -0.107715,0.158516 z m 1.341165,-1.248235 c 1.439037,-0.787183 3.739666,-1.485941 5.920865,-1.798313 1.542464,-0.220899 3.865977,-0.300012 5.323759,-0.181269 2.898129,0.236067 5.719229,0.973555 7.558422,1.975911 0.365621,0.199262 0.559331,0.241965 0.801644,0.176716 0.375485,-0.101107 0.617015,-0.464025 0.561737,-0.844053 l -0.02736,-0.18806 0.230234,-0.126449 c 0.598063,-0.328468 1.671329,-1.078234 2.355357,-1.645414 0.467631,-0.38775 1.269192,-1.184112 1.656603,-1.645858 0.910944,-1.085737 1.504516,-2.301547 1.69785,-3.477701 0.112936,-0.687049 0.07145,-1.615522 -0.102072,-2.284227 -0.177195,-0.682871 -0.311829,-0.995149 -0.611002,-1.417183 -0.349286,-0.49273 -1.175025,-1.306389 -1.664237,-1.639891 -1.04393,-0.711662 -2.133764,-1.090174 -3.460324,-1.201812 -1.767735,-0.148765 -3.864627,0.356992 -5.692574,1.373012 -1.444864,0.803094 -2.772209,1.897712 -3.818238,3.148775 -0.38529,0.460812 -0.600371,0.761753 -1.271586,1.779197 -0.05375,0.08148 -0.05579,0.08148 -0.109542,-8.8e-5 -0.969812,-1.471625 -1.212565,-1.779261 -2.112686,-2.677356 -1.490134,-1.486782 -3.109207,-2.498511 -5.018522,-3.135981 -1.245058,-0.415692 -2.505364,-0.583987 -3.65119,-0.487559 -1.7762372,0.149481 -3.1762909,0.7882 -4.3892185,2.002408 -0.8177351,0.818597 -1.114702,1.321608 -1.3615765,2.306273 -0.15628,0.623327 -0.1936431,1.584693 -0.08684,2.234432 0.3249564,1.976883 1.6893472,3.889008 4.0368565,5.657451 0.4779765,0.360073 1.3039765,0.908873 1.6729535,1.111522 l 0.230234,0.126449 -0.02736,0.18806 c -0.07242,0.497877 0.347432,0.92271 0.853908,0.864037 0.105379,-0.01221 0.332132,-0.09907 0.503895,-0.193029 z"
     id="path241" />
  <path
     style="fill:#1a1a1a;stroke-width:0.0438169"
     d="m 31.263389,28.566349 c -1.04311,-0.434385 -2.573609,-0.881071 -3.883933,-1.133554 -1.122571,-0.216304 -2.922228,-0.418666 -3.73802,-0.420321 -0.413527,-8.37e-4 -0.452696,-0.02264 -0.395988,-0.220364 0.02379,-0.08296 0.04335,-0.614325 0.04346,-1.180818 l 2.05e-4,-1.029987 0.255369,-0.525804 c 1.085238,-2.234503 3.014622,-4.159605 5.287064,-5.275328 1.378395,-0.676764 2.573596,-0.981329 3.855891,-0.982571 1.621038,-0.0016 2.90564,0.51469 3.970464,1.595664 0.626825,0.636332 0.842397,1.036658 0.983062,1.825591 0.267,1.497493 -0.352162,3.05573 -1.820614,4.581918 -0.740516,0.769631 -1.466127,1.364651 -2.455021,2.01318 -0.485042,0.318097 -1.575071,0.955915 -1.619955,0.947898 -0.01205,-0.0022 -0.228944,-0.09013 -0.481986,-0.195504 z"
     id="path243" />
  <path
     style="fill:#1a1a1a;stroke-width:0.0438169"
     d="m 11.765013,35.246256 c 1.63e-4,-1.454614 6.61e-4,-1.462577 0.08312,-1.327352 0.128575,0.210854 0.377544,0.343381 0.638151,0.339691 0.18087,-0.0026 0.335125,-0.05909 0.855975,-0.313674 4.378592,-2.140214 10.602345,-2.529949 15.796008,-0.989157 0.765137,0.226991 1.700407,0.59334 2.475657,0.969723 0.558842,0.271317 0.718249,0.330308 0.899791,0.332982 0.260604,0.0038 0.509514,-0.128608 0.638152,-0.339565 0.08246,-0.135225 0.08296,-0.127262 0.08312,1.327352 l 1.75e-4,1.463393 -0.09859,-0.148885 c -0.07536,-0.113811 -0.243098,-0.22293 -0.712025,-0.463202 -2.093169,-1.072512 -4.715766,-1.757906 -7.799416,-2.038315 -0.802724,-0.07299 -3.44752,-0.07299 -4.250243,0 -3.083662,0.280409 -5.706258,0.965803 -7.799427,2.038315 -0.468928,0.240272 -0.636662,0.349391 -0.712026,0.463202 l -0.09859,0.148885 z"
     id="path245" />
  <path
     style="fill:#1a1a1a;stroke-width:0.0438169"
     d="m 20.92259,40.305859 c -0.108447,-0.0095 -0.557976,-0.05697 -0.998953,-0.105514 -2.464846,-0.271321 -4.897955,-0.991415 -6.831603,-2.021856 -0.762728,-0.406458 -0.771861,-0.41355 -0.54409,-0.422475 0.124022,-0.0049 0.348184,-0.09091 0.712305,-0.273439 1.961705,-0.983372 4.216366,-1.58039 7.048904,-1.866496 1.001282,-0.101137 3.372477,-0.100515 4.403603,0.0012 2.749487,0.2711 5.069242,0.884811 6.99976,1.851845 0.38594,0.193325 0.614608,0.282041 0.739592,0.286938 0.227713,0.0089 0.218563,0.01603 -0.544142,0.422473 -1.91255,1.019197 -4.249663,1.716087 -6.800858,2.027905 -0.603836,0.0738 -1.051883,0.09348 -2.366115,0.103883 -0.891675,0.0071 -1.709956,0.0051 -1.818403,-0.0044 z"
     id="path247" />
</svg>
