<?xml version="1.0" encoding="UTF-8" standalone="no"?>
<svg
   version="1.1"
   width="45"
   height="45"
   id="svg14"
   xmlns="http://www.w3.org/2000/svg"
   xmlns:svg="http://www.w3.org/2000/svg">
  <defs
     id="defs18" />
  <g
     style="opacity:1;fill:none;fill-opacity:1;fill-rule:evenodd;stroke:#000000;stroke-width:1.5;stroke-linecap:round;stroke-linejoin:round;stroke-miterlimit:4;stroke-dasharray:none;stroke-opacity:1"
     transform="translate(0,0.3)"
     id="g12">
    <path
       d="m 22,10 c 10.5,1 16.5,8 16,29 H 15 c 0,-9 10,-6.5 8,-21"
       style="fill:#000000;stroke:#000000"
       id="path2" />
    <path
       d="m 24,18 c 0.38,2.91 -5.55,7.37 -8,9 -3,2 -2.82,4.34 -5,4 -1.042,-0.94 1.41,-3.04 0,-3 -1,0 0.19,1.23 -1,2 -1,0 -4.003,1 -4,-4 0,-2 6,-12 6,-12 0,0 1.89,-1.9 2,-3.5 -0.73,-0.994 -0.5,-2 -0.5,-3 1,-1 3,2.5 3,2.5 h 2 c 0,0 0.78,-1.992 2.5,-3 1,0 1,3 1,3"
       style="fill:#000000;stroke:#000000"
       id="path4" />
    <path
       d="m 9.5,25.5 a 0.5,0.5 0 1 1 -1,0 0.5,0.5 0 1 1 1,0 z"
       style="fill:#ffffff;stroke:#ffffff"
       id="path6" />
    <path
       d="m 15,15.5 a 0.5,1.5 0 1 1 -1,0 0.5,1.5 0 1 1 1,0 z"
       transform="matrix(0.866,0.5,-0.5,0.866,9.693,-5.173)"
       style="fill:#ffffff;stroke:#ffffff"
       id="path8" />
    <path
       d="M 24.55,10.4 24.1,11.85 24.6,12 c 3.15,1 5.65,2.49 7.9,6.75 2.25,4.26 3.25,10.31 2.75,20.25 l -0.05,0.5 h 2.25 L 37.5,39 C 38,28.94 36.62,22.15 34.25,17.66 31.88,13.17 28.46,11.02 25.06,10.5 Z"
       style="fill:#ffffff;stroke:none"
       id="path10" />
  </g>
  <path
     style="fill:#1a1a1a;stroke-width:0.0438169"
     d="m 14.837416,40.004777 c -0.213082,-0.05031 -0.363257,-0.174464 -0.479987,-0.396826 -0.09634,-0.183531 -0.100629,-0.225796 -0.07524,-0.742323 0.07337,-1.492836 0.343602,-2.6197 0.898408,-3.746349 0.580635,-1.179103 1.105677,-1.835273 2.8925,-3.614897 0.762199,-0.759129 1.542916,-1.557693 1.734927,-1.774586 1.553823,-1.755187 2.353114,-3.590504 2.625471,-6.028555 0.108308,-0.969538 0.175045,-0.957296 -0.667426,-0.122427 -1.43388,1.420944 -2.931444,2.642721 -4.962269,4.048431 -1.385282,0.958875 -1.775266,1.330457 -2.780256,2.649065 -0.68388,0.897292 -1.055371,1.269181 -1.502267,1.50388 -0.576898,0.302971 -1.391861,0.371764 -1.842445,0.155523 -0.221894,-0.10649 -0.462474,-0.40388 -0.568716,-0.703012 l -0.0757,-0.213127 -0.3726125,0.03427 C 9.0318043,31.111795 8.1389638,31.08792 7.8287448,31.004829 6.2128835,30.572026 5.3760178,29.17464 5.2927734,26.770302 5.2690294,26.084507 5.273941,26.021159 5.3839742,25.594028 5.8030853,23.967106 7.6787756,20.257534 10.699887,15.080694 c 0.507327,-0.869332 0.755128,-1.24712 1.005922,-1.533593 0.703979,-0.804128 1.202045,-1.576683 1.417347,-2.198461 l 0.123262,-0.355971 -0.166849,-0.358798 C 12.799782,10.032203 12.749388,9.7182564 12.759428,8.6394339 12.764254,8.1208784 12.788939,7.6418003 12.814882,7.5631897 12.935461,7.197833 13.434,6.9089546 13.94446,6.9086566 c 0.283535,-1.657e-4 0.356006,0.018949 0.679398,0.1791962 0.596124,0.2953911 1.304328,1.0230256 2.003953,2.058934 l 0.273734,0.4053067 h 0.578356 0.578357 l 0.07829,-0.1643136 C 18.256297,9.1364692 18.669765,8.513984 18.944192,8.1718598 19.297743,7.7310905 19.71856,7.3214328 20.1397,7.0080515 c 0.604328,-0.4496962 0.836051,-0.5148483 1.259234,-0.3540512 0.585455,0.2224554 0.934469,0.7701507 1.143072,1.7937835 0.0487,0.2389937 0.103542,0.6000218 0.121861,0.8022845 l 0.03331,0.3677506 0.15336,0.032979 c 0.08435,0.018138 0.521277,0.092532 0.970955,0.1653203 1.812562,0.2933928 3.447274,0.8062138 4.953148,1.5538378 1.447641,0.718713 2.497535,1.476124 3.674055,2.650524 1.323289,1.320905 2.237219,2.618985 3.131925,4.448361 2.197047,4.492227 3.242866,10.814753 3.167772,19.150839 -0.01477,1.639482 -0.02473,1.85267 -0.09246,1.97848 -0.113256,0.210372 -0.285131,0.350206 -0.495588,0.4032 -0.223586,0.0563 -23.084753,0.05965 -23.322924,0.0034 z m 22.66636,-0.536666 c 0.155094,-1.950279 0.145885,-5.979707 -0.0192,-8.401899 -0.483449,-7.093313 -2.21814,-12.498065 -5.145173,-16.030746 -1.605708,-1.937953 -3.747561,-3.364041 -5.965409,-3.971885 -0.530657,-0.145437 -1.8031,-0.398349 -1.836437,-0.365012 -0.027,0.027 -0.46625,1.447413 -0.451542,1.460162 0.0073,0.0063 0.289351,0.100362 0.626742,0.208931 1.1487,0.369644 2.235424,0.848538 3.089094,1.361294 1.331927,0.800021 2.643525,2.100145 3.653414,3.621455 2.409367,3.6295 3.557316,7.955659 3.842964,14.482598 0.08307,1.898179 8.7e-5,7.551985 -0.116243,7.918471 -0.02336,0.07361 0.04219,0.07812 1.134125,0.07812 H 37.47503 Z M 9.2751564,27.029272 c 0.3848069,-0.08253 0.6793422,-0.316553 0.8743986,-0.694763 0.138486,-0.26852 0.143177,-0.766033 0.01,-1.05605 -0.1997655,-0.434891 -0.5949394,-0.698745 -1.0954747,-0.731438 -0.2665859,-0.01741 -0.3474878,-0.0045 -0.5477118,0.08756 -0.3174659,0.145929 -0.4782124,0.290379 -0.6266624,0.56313 -0.3821731,0.702178 -0.00256,1.615701 0.7563193,1.820038 0.2621746,0.07059 0.3465396,0.07214 0.629173,0.01153 z m 5.1011216,-9.281539 c 0.882735,-0.441108 1.861989,-2.172208 1.753061,-3.099016 -0.08902,-0.757433 -0.777522,-1.144533 -1.465794,-0.824124 -0.656361,0.305553 -1.470784,1.452211 -1.718009,2.418851 -0.154612,0.604527 -0.07882,1.063032 0.22437,1.357284 0.217997,0.211572 0.360477,0.268762 0.680204,0.273026 0.212607,0.0028 0.319573,-0.02278 0.526168,-0.126021 z"
     id="path193" />
</svg>
