<?xml version="1.0" encoding="UTF-8" standalone="no"?>
<svg
   version="1.1"
   width="45"
   height="45"
   id="svg4"
   xmlns="http://www.w3.org/2000/svg"
   xmlns:svg="http://www.w3.org/2000/svg">
  <defs
     id="defs8" />
  <path
     d="m 22.5,9 c -2.21,0 -4,1.79 -4,4 0,0.89 0.29,1.71 0.78,2.38 C 17.33,16.5 16,18.59 16,21 c 0,2.03 0.94,3.84 2.41,5.03 C 15.41,27.09 11,31.58 11,39.5 H 34 C 34,31.58 29.59,27.09 26.59,26.03 28.06,24.84 29,23.03 29,21 29,18.59 27.67,16.5 25.72,15.38 26.21,14.71 26.5,13.89 26.5,13 c 0,-2.21 -1.79,-4 -4,-4 z"
     style="opacity:1;fill:#000000;fill-opacity:1;fill-rule:nonzero;stroke:#000000;stroke-width:1.5;stroke-linecap:round;stroke-linejoin:miter;stroke-miterlimit:4;stroke-dasharray:none;stroke-opacity:1"
     id="path2" />
  <path
     style="fill:#1a1a1a;stroke-width:0.0438169"
     d="m 10.289307,39.095667 c 0.01515,-0.620557 0.04832,-1.335321 0.07371,-1.588364 0.407975,-4.065955 2.002709,-7.592458 4.533732,-10.02564 0.545049,-0.523979 1.336956,-1.141212 1.863227,-1.452248 0.180744,-0.106823 0.335788,-0.199248 0.34454,-0.205387 0.0088,-0.0061 -0.110778,-0.169508 -0.265624,-0.363042 -1.28863,-1.610589 -1.826147,-3.783406 -1.436035,-5.80492 0.309948,-1.606118 1.212407,-3.132498 2.460019,-4.160774 L 18.2809,15.150759 18.151962,14.843878 c -0.07091,-0.168784 -0.179631,-0.496826 -0.24159,-0.728982 -0.09871,-0.369862 -0.112652,-0.508866 -0.112652,-1.123173 0,-0.620251 0.01345,-0.751583 0.116645,-1.13924 0.139615,-0.524452 0.507748,-1.294077 0.806919,-1.686952 0.655282,-0.8605298 1.624636,-1.4992073 2.678147,-1.7645492 0.544474,-0.1371334 1.656654,-0.1371334 2.201128,0 0.826726,0.208223 1.545136,0.6077958 2.170893,1.2074303 0.620601,0.5946939 1.088932,1.3942049 1.314514,2.2440709 0.102758,0.387134 0.116304,0.519825 0.116304,1.13924 0,0.614307 -0.01394,0.753311 -0.112652,1.123173 -0.06196,0.232156 -0.171058,0.561109 -0.242441,0.731007 l -0.129789,0.308906 0.180739,0.143115 c 1.439094,1.139527 2.367825,2.642 2.701315,4.370106 0.387326,2.007075 -0.154163,4.187928 -1.438344,5.792956 -0.154846,0.193534 -0.274377,0.356555 -0.265624,0.36227 0.0088,0.0057 0.144078,0.0866 0.300724,0.179754 2.785603,1.656479 5.038497,4.973822 5.980443,8.806089 0.340232,1.384221 0.495167,2.626259 0.534719,4.286568 l 0.02688,1.128286 H 22.5 10.261757 Z"
     id="path183" />
</svg>
