<?xml version="1.0" encoding="UTF-8" standalone="no"?>
<svg
   version="1.1"
   width="45"
   height="45"
   id="svg34"
   xmlns="http://www.w3.org/2000/svg"
   xmlns:svg="http://www.w3.org/2000/svg">
  <defs
     id="defs38" />
  <g
     style="fill:#000000;stroke:#000000;stroke-width:1.5;stroke-linecap:round;stroke-linejoin:round"
     id="g32">
    <path
       d="m 9,26 c 8.5,-1.5 21,-1.5 27,0 L 38.5,13.5 31,25 30.7,10.9 25.5,24.5 22.5,10 19.5,24.5 14.3,10.9 14,25 6.5,13.5 Z"
       style="fill:#000000;stroke-linecap:butt"
       id="path2" />
    <path
       d="m 9,26 c 0,2 1.5,2 2.5,4 1,1.5 1,1 0.5,3.5 -1.5,1 -1,2.5 -1,2.5 -1.5,1.5 0,2.5 0,2.5 6.5,1 16.5,1 23,0 0,0 1.5,-1 0,-2.5 0,0 0.5,-1.5 -1,-2.5 -0.5,-2.5 -0.5,-2 0.5,-3.5 1,-2 2.5,-2 2.5,-4 -8.5,-1.5 -18.5,-1.5 -27,0 z"
       id="path4" />
    <path
       d="M 11.5,30 C 15,29 30,29 33.5,30"
       id="path6" />
    <path
       d="m 12,33.5 c 6,-1 15,-1 21,0"
       id="path8" />
    <circle
       cx="6"
       cy="12"
       r="2"
       id="circle10" />
    <circle
       cx="14"
       cy="9"
       r="2"
       id="circle12" />
    <circle
       cx="22.5"
       cy="8"
       r="2"
       id="circle14" />
    <circle
       cx="31"
       cy="9"
       r="2"
       id="circle16" />
    <circle
       cx="39"
       cy="12"
       r="2"
       id="circle18" />
    <path
       d="m 11,38.5 a 35,35 1 0 0 23,0"
       style="fill:none;stroke:#000000;stroke-linecap:butt"
       id="path20" />
    <g
       style="fill:none;stroke:#ffffff"
       id="g30">
      <path
         d="m 11,29 a 35,35 1 0 1 23,0"
         id="path22" />
      <path
         d="m 12.5,31.5 h 20"
         id="path24" />
      <path
         d="m 11.5,34.5 a 35,35 1 0 0 22,0"
         id="path26" />
      <path
         d="m 10.5,37.5 a 35,35 1 0 0 24,0"
         id="path28" />
    </g>
  </g>
  <path
     style="fill:#1a1a1a;stroke-width:0.0438169"
     d="M 21.075949,41.140483 C 17.784006,41.006176 14.632736,40.440003 11.438018,39.408885 10.565977,39.127427 10.353759,38.992998 10.011023,38.504961 9.7077611,38.073131 9.6007434,37.710755 9.6281303,37.208433 9.6522191,36.7666 9.759699,36.449846 10.015523,36.066747 c 0.16938,-0.253649 0.173097,-0.267741 0.187968,-0.712659 0.02639,-0.789715 0.297096,-1.434948 0.830711,-1.980053 l 0.307531,-0.314152 0.122969,-0.613437 C 11.651029,31.516943 11.649895,31.508182 11.271908,30.957157 11.097188,30.702451 10.884587,30.371324 10.79946,30.221318 10.515554,29.72103 10.349916,29.515527 9.6616358,28.80964 8.6281414,27.749708 8.4183244,27.381754 8.30363,26.428117 8.2785632,26.219697 7.7507457,23.500669 7.130702,20.385833 L 6.0033498,14.722493 H 5.845831 c -0.2610406,0 -0.8135898,-0.162544 -1.1486759,-0.337906 C 4.3284189,14.191614 3.8833466,13.765922 3.6665758,13.398884 3.0201926,12.304422 3.1908046,10.975237 4.0927454,10.078729 4.6350406,9.5397005 5.2408363,9.2891918 6.0020535,9.2891918 c 1.0406352,0 1.9755557,0.575791 2.4189726,1.4897762 0.2319617,0.478128 0.295434,0.756051 0.290201,1.270691 -0.00706,0.694504 -0.2669228,1.328894 -0.7541431,1.841069 -0.1370852,0.144107 -0.1753199,0.213111 -0.1491055,0.2691 0.076772,0.16397 5.4706955,8.40534 5.5014175,8.40561 0.01807,1.75e-4 0.03286,-0.239652 0.03286,-0.53291 0,-0.633338 0.15945,-8.333236 0.196853,-9.506083 l 0.02602,-0.815813 -0.371425,-0.115804 c -0.731,-0.227914 -1.323231,-0.748208 -1.651854,-1.451206 -0.210614,-0.4505515 -0.276466,-0.7955392 -0.249032,-1.3046363 0.05275,-0.9789005 0.617771,-1.8329752 1.501729,-2.2699909 0.800999,-0.3960022 1.607332,-0.3961652 2.409932,-4.873e-4 0.884186,0.435899 1.448874,1.2896565 1.501729,2.2704782 0.02744,0.5090971 -0.03842,0.8540848 -0.249032,1.3046363 -0.207696,0.444309 -0.525979,0.826871 -0.895057,1.075818 -0.158901,0.10718 -0.284658,0.207031 -0.279459,0.221891 0.0052,0.01486 0.905599,2.3689 2.000888,5.231201 1.422972,3.718626 2.000905,5.180573 2.024609,5.121473 0.0444,-0.110709 2.328187,-11.194138 2.308784,-11.204752 -0.0084,-0.0046 -0.143353,-0.06964 -0.299998,-0.144593 -1.11156,-0.5318909 -1.734367,-1.7910845 -1.486086,-3.0045772 0.06853,-0.3349314 0.396101,-0.983903 0.630331,-1.2487776 0.571178,-0.6459037 1.543236,-1.0094553 2.381274,-0.8906002 0.641524,0.090985 1.120395,0.3305227 1.591237,0.7959596 0.230862,0.2282127 0.336721,0.3793266 0.491117,0.7010711 0.227813,0.4747372 0.292088,0.7422625 0.291187,1.2119673 -0.002,1.0418203 -0.597154,1.9871728 -1.532946,2.434957 -0.156645,0.07496 -0.291699,0.140078 -0.300121,0.144716 -0.01921,0.01058 2.264705,11.091766 2.309357,11.204629 0.02324,0.05875 0.609719,-1.425145 2.024159,-5.121473 1.095289,-2.862301 1.995776,-5.216341 2.001081,-5.231201 0.0053,-0.01486 -0.109931,-0.105888 -0.256081,-0.202285 -0.380157,-0.250743 -0.671744,-0.593979 -0.893366,-1.051607 -0.234773,-0.4847839 -0.302811,-0.8192646 -0.274294,-1.3484533 0.05275,-0.9789005 0.617771,-1.8329752 1.501729,-2.2699909 0.781418,-0.3863215 1.590419,-0.3949436 2.364858,-0.025204 0.957491,0.4571345 1.554092,1.3954781 1.556111,2.4474797 8.58e-4,0.4473964 -0.0626,0.7295188 -0.25921,1.1523515 -0.326335,0.701829 -0.919437,1.223121 -1.651188,1.451269 l -0.371628,0.115868 0.02644,0.859567 c 0.03852,1.252355 0.196775,8.875672 0.196809,9.48055 1.6e-5,0.283167 0.01482,0.514668 0.03289,0.514448 0.03108,-3.95e-4 5.426654,-8.243408 5.501418,-8.404725 0.02632,-0.05679 -0.01148,-0.125194 -0.149106,-0.269871 -0.48722,-0.512175 -0.747081,-1.146565 -0.754143,-1.841069 -0.0052,-0.515061 0.05833,-0.792982 0.290616,-1.270691 0.322882,-0.664011 0.9389,-1.179149 1.659734,-1.3879319 0.962117,-0.2786684 1.952805,-0.023325 2.668131,0.6876929 0.746126,0.741631 1.004752,1.79371 0.678204,2.758903 -0.347502,1.02713 -1.265658,1.772475 -2.302088,1.868801 l -0.288877,0.02685 -1.126274,5.657946 c -0.61945,3.11187 -1.146782,5.82847 -1.171849,6.03689 -0.114694,0.953637 -0.324511,1.321591 -1.358006,2.381523 -0.68828,0.705887 -0.853918,0.91139 -1.137824,1.411678 -0.08513,0.150006 -0.297728,0.481133 -0.472448,0.735839 -0.378264,0.551429 -0.378898,0.556398 -0.191799,1.503089 0.120243,0.608407 0.128755,0.631185 0.283564,0.758792 0.582962,0.480527 1.021072,1.491167 0.985939,2.27438 -0.01223,0.272524 -0.004,0.299817 0.169313,0.559299 0.264395,0.395936 0.372448,0.709848 0.396591,1.152174 0.02392,0.438254 -0.04792,0.744141 -0.258903,1.102362 -0.376827,0.639804 -0.594204,0.793917 -1.554884,1.102367 -3.328496,1.068697 -6.26279,1.588362 -9.787222,1.733322 -1.174746,0.04832 -1.4565,0.04806 -2.694742,-0.0025 z m 4.065206,-0.849677 c 2.762232,-0.211302 5.365592,-0.704188 7.962545,-1.507523 1.954027,-0.604454 2.14703,-0.719409 2.14703,-1.278793 0,-0.40582 -0.248592,-0.703718 -0.639391,-0.76621 -0.145585,-0.02328 -0.330749,0.02427 -1.0934,0.280781 -2.9358,0.987431 -5.7672,1.550331 -8.870909,1.76359 -0.421738,0.02898 -1.387901,0.05269 -2.14703,0.05269 -3.831136,0 -7.328045,-0.57654 -11.017939,-1.816543 -0.762473,-0.256231 -0.947849,-0.30379 -1.0934,-0.280516 -0.3907994,0.06249 -0.6393913,0.36039 -0.6393913,0.76621 0,0.2492 0.066081,0.40961 0.232941,0.565463 0.2137463,0.199647 2.2763993,0.867229 3.9360433,1.273909 2.4377,0.597336 4.501812,0.887145 7.332963,1.029575 0.641329,0.03226 3.059463,-0.0191 3.889938,-0.08263 z m 0.382214,-3.371538 c 1.531402,-0.142856 3.175694,-0.387297 4.44742,-0.661155 1.368496,-0.294698 3.640505,-0.933818 3.93867,-1.107956 0.648377,-0.378672 0.356153,-1.411881 -0.399045,-1.410895 -0.09115,1.32e-4 -0.510779,0.106661 -0.932517,0.236761 -5.22301,1.611212 -10.697811,1.945845 -16.102727,0.984236 -1.398772,-0.248861 -2.775714,-0.585797 -4.183886,-1.023793 -0.349092,-0.108581 -0.709572,-0.19742 -0.801066,-0.19742 -0.606679,0 -0.969604,0.687786 -0.629348,1.19269 0.137587,0.204168 0.283481,0.272569 1.149677,0.539019 2.710434,0.833757 5.568578,1.342228 8.583416,1.527014 0.725726,0.04448 4.205009,-0.01093 4.929406,-0.0785 z m 7.34758,-4.742572 c 0.08412,-0.03992 0.199609,-0.143433 0.256651,-0.230039 0.297322,-0.451414 0.09228,-1.046112 -0.408659,-1.185235 -0.226976,-0.06304 -20.210906,-0.06304 -20.437882,0 -0.500516,0.139007 -0.705985,0.733808 -0.409164,1.184472 0.217069,0.329578 -0.77745,0.301265 10.621483,0.302378 9.427859,9.2e-4 10.236552,-0.0047 10.377571,-0.07158 z M 11.768381,29.558449 c 5.129786,-1.685989 10.572904,-2.144441 15.88011,-1.337518 1.797277,0.273263 3.602248,0.702787 5.448357,1.296532 0.858513,0.276113 1.096273,0.294267 1.363344,0.104095 0.266047,-0.189441 0.380604,-0.62038 0.248784,-0.935868 C 34.60129,28.42796 34.419951,28.326043 33.574401,28.048031 27.619832,26.090205 21.07101,25.75819 14.90719,27.101633 c -1.875165,0.408704 -4.137894,1.088865 -4.424402,1.329945 -0.415574,0.349682 -0.282108,1.095911 0.230454,1.288511 0.183789,0.06906 0.501123,0.02045 1.055139,-0.16164 z"
     id="path213" />
  <path
     style="fill:#1a1a1a;stroke-width:0.0438169"
     d="m 20.712384,41.117829 c -0.04103,-0.01467 -0.321074,-0.0402 -0.622316,-0.05672 -0.616306,-0.03381 -1.517317,-0.123816 -2.300389,-0.229808 -0.289192,-0.03914 -0.594815,-0.07643 -0.679163,-0.08287 -0.08435,-0.0064 -0.182936,-0.02153 -0.219085,-0.03356 -0.09601,-0.03193 -1.846613,-0.351303 -1.949854,-0.355719 -0.0482,-0.0021 -0.09749,-0.01447 -0.109542,-0.02758 -0.03769,-0.041 -1.540224,-0.393501 -1.577944,-0.370189 -0.01969,0.01217 -0.04241,0.0051 -0.0505,-0.01564 -0.0081,-0.02077 -0.241449,-0.102003 -0.518591,-0.180513 -0.84944,-0.240635 -1.718374,-0.531054 -1.973119,-0.659465 -0.133292,-0.06719 -0.330469,-0.212838 -0.438169,-0.323663 -0.203017,-0.208905 -0.5244473,-0.699682 -0.5244473,-0.800753 0,-0.03178 -0.017588,-0.05778 -0.039085,-0.05778 -0.021497,0 -0.036285,-0.261259 -0.032863,-0.580575 0.00576,-0.537725 0.015303,-0.599978 0.1292503,-0.843476 0.067665,-0.144596 0.1822505,-0.355241 0.254634,-0.4681 0.117567,-0.183309 0.135627,-0.258517 0.169301,-0.705019 0.04089,-0.542166 0.175754,-1.027092 0.38529,-1.385359 0.06497,-0.111094 0.258243,-0.349871 0.429485,-0.530616 0.311061,-0.328323 0.311422,-0.328993 0.389208,-0.72298 0.04282,-0.216894 0.08221,-0.445332 0.08753,-0.507642 0.0053,-0.06231 0.02288,-0.134675 0.03904,-0.160813 0.05407,-0.08748 0.0019,-0.673987 -0.06359,-0.715478 -0.03368,-0.02133 -0.04152,-0.0397 -0.01742,-0.04084 0.0241,-0.0011 0.0055,-0.03101 -0.04124,-0.0664 -0.04678,-0.03538 -0.07187,-0.06433 -0.05576,-0.06433 0.02629,0 -0.123328,-0.240913 -0.741196,-1.193487 -0.105326,-0.162381 -0.191501,-0.305372 -0.191501,-0.317758 0,-0.01238 0.07365,0.01695 0.163664,0.0652 0.09002,0.04825 0.216957,0.08772 0.282092,0.08772 0.19901,0 0.805178,-0.156208 1.131654,-0.291624 0.03615,-0.01499 0.0953,-0.03187 0.131451,-0.0375 0.08004,-0.01247 1.266235,-0.361836 1.358325,-0.400067 0.03615,-0.01501 0.10516,-0.0328 0.153359,-0.03954 0.0482,-0.0067 0.28481,-0.06227 0.525803,-0.123395 3.082997,-0.781966 6.450079,-1.13012 9.595911,-0.992208 1.705583,0.07477 1.645801,0.07096 2.300389,0.146802 0.301242,0.0349 0.577289,0.06466 0.613437,0.06613 0.435632,0.01767 2.615498,0.421621 3.724441,0.690181 0.445837,0.107972 0.850048,0.200389 0.898247,0.205371 0.0482,0.005 0.09749,0.01936 0.109542,0.03195 0.02623,0.02741 1.307936,0.402042 1.402142,0.409841 0.03615,0.003 0.07559,0.01717 0.08763,0.0315 0.03142,0.03738 0.587366,0.199097 0.90909,0.26445 0.252107,0.05121 0.291069,0.04829 0.49294,-0.037 0.120559,-0.05094 0.219197,-0.08606 0.219197,-0.07806 0,0.01922 -0.677214,1.086979 -0.840545,1.32528 -0.0702,0.102422 -0.113063,0.186222 -0.09525,0.186222 0.01781,0 -0.0059,0.02895 -0.05267,0.06433 -0.04678,0.03538 -0.06534,0.06526 -0.04124,0.0664 0.0241,0.0011 0.01452,0.02059 -0.02128,0.04323 -0.109222,0.06906 -0.09901,0.570989 0.0241,1.184371 0.06046,0.301241 0.135811,0.567429 0.167447,0.591529 0.03164,0.0241 0.05948,0.0599 0.06187,0.07955 0.0024,0.01965 0.05471,0.07535 0.116274,0.123776 0.165933,0.130523 0.489513,0.60256 0.638897,0.932021 0.175401,0.386836 0.260051,0.766253 0.260835,1.169104 5.35e-4,0.273571 0.02014,0.367005 0.11032,0.525803 0.06032,0.106212 0.183555,0.340996 0.273856,0.521741 0.162976,0.326209 0.164227,0.332819 0.170044,0.898247 0.0032,0.313291 -0.0075,0.579479 -0.02379,0.591529 -0.01631,0.01205 -0.08503,0.132857 -0.152701,0.26846 -0.215187,0.431174 -0.463621,0.704983 -0.798134,0.87966 -0.274276,0.143221 -1.101159,0.430887 -1.802655,0.627129 -0.150621,0.04214 -0.273856,0.09489 -0.273856,0.117239 0,0.02235 -0.01907,0.02884 -0.04238,0.01444 -0.02331,-0.01441 -0.294424,0.04158 -0.602483,0.124405 -0.308058,0.08283 -0.673482,0.175458 -0.812053,0.205845 -0.138571,0.03039 -0.251948,0.07299 -0.251948,0.09468 0,0.02169 -0.01694,0.02896 -0.03765,0.01616 -0.02071,-0.0128 -0.410132,0.0533 -0.865385,0.146877 -0.455253,0.09358 -1.10378,0.213237 -1.44117,0.265902 -0.33739,0.05267 -0.643014,0.106842 -0.679163,0.120394 -0.03615,0.01355 -0.08362,0.02048 -0.105486,0.01538 -0.05803,-0.01351 -0.868792,0.08522 -0.94612,0.115215 -0.03615,0.01402 -0.08336,0.02141 -0.104911,0.01643 -0.02155,-0.005 -0.389829,0.02146 -0.818394,0.05877 -0.428566,0.03731 -0.895657,0.06783 -1.037982,0.06783 -0.142324,0 -0.272778,0.01401 -0.289896,0.03113 -0.03791,0.03791 -3.418706,0.04589 -3.523775,0.0083 z m 2.554412,-0.741081 c 0.819377,-0.02253 1.647518,-0.05146 1.840312,-0.06429 1.01033,-0.06722 3.189014,-0.352756 4.031159,-0.528318 0.168695,-0.03517 0.362466,-0.07309 0.430602,-0.08427 0.7467,-0.122521 3.371118,-0.805004 3.832078,-0.996537 0.06546,-0.0272 0.133802,-0.05357 0.151877,-0.0586 0.01807,-0.005 0.03779,-0.01326 0.04382,-0.01828 0.006,-0.005 0.05039,-0.01435 0.09859,-0.02074 0.179229,-0.02374 0.460078,-0.127881 0.460078,-0.170594 0,-0.0243 0.01205,-0.03214 0.02678,-0.01741 0.06576,0.06576 0.808696,-0.284139 0.96126,-0.452719 0.115257,-0.127359 0.142621,-0.601668 0.04641,-0.804421 -0.152637,-0.321658 -0.512693,-0.500684 -0.835886,-0.415618 -0.09716,0.02557 -0.604162,0.182507 -1.126676,0.348744 -1.54081,0.490204 -2.569095,0.76514 -3.760295,1.005403 -0.37354,0.07534 -0.708739,0.148667 -0.744888,0.162944 -0.03615,0.01428 -0.0791,0.0233 -0.09544,0.02005 -0.01634,-0.0033 -0.312108,0.04363 -0.657254,0.104186 -0.345144,0.06055 -0.657112,0.111619 -0.693261,0.113483 -0.03615,0.0019 -0.28262,0.03016 -0.547712,0.06288 -0.657753,0.08118 -1.282745,0.140747 -2.037488,0.194179 -0.750983,0.05317 -3.468422,0.05253 -4.250243,-9.94e-4 -0.301242,-0.02062 -0.715312,-0.04799 -0.920156,-0.06082 -0.495833,-0.03105 -1.948319,-0.217899 -2.774472,-0.356903 -1.43165,-0.24088 -3.050488,-0.639067 -4.646746,-1.142964 -0.502921,-0.158759 -0.936709,-0.292047 -0.963973,-0.296198 -0.02726,-0.0041 -0.06947,-0.02001 -0.09379,-0.03524 -0.02432,-0.01523 -0.163298,-0.05855 -0.308833,-0.09626 -0.309562,-0.08022 -0.510176,-0.04379 -0.716916,0.130169 -0.1870397,0.157385 -0.2664443,0.345688 -0.2664443,0.631856 0,0.47946 0.1740293,0.609541 1.3548943,1.012741 0.941345,0.321417 2.714375,0.821002 3.31161,0.93311 0.0723,0.01357 0.299051,0.06407 0.503895,0.112228 0.204844,0.04816 0.431597,0.09761 0.503895,0.109913 0.0723,0.0123 0.328627,0.06195 0.56962,0.110348 0.240993,0.04839 0.51704,0.0978 0.613437,0.109794 0.0964,0.01199 0.49075,0.06931 0.876339,0.127364 0.385589,0.05806 0.867995,0.118616 1.072013,0.134576 0.204018,0.01596 0.381477,0.03539 0.394353,0.04317 0.01288,0.0078 0.200869,0.02616 0.417763,0.04083 0.216893,0.01467 0.532375,0.03817 0.701071,0.05221 0.29813,0.02482 1.312574,0.08725 1.57741,0.09709 0.0723,0.0027 0.80185,-0.01355 1.621226,-0.03608 z m 1.336417,-3.398808 c 0.301242,-0.01385 0.666018,-0.03403 0.810614,-0.04485 0.144596,-0.01082 0.292478,-0.0209 0.328627,-0.02241 0.307751,-0.01284 1.996992,-0.232193 2.475657,-0.32147 0.0482,-0.009 0.186222,-0.02929 0.306719,-0.04511 0.120496,-0.01582 0.406402,-0.06679 0.635345,-0.113276 0.228944,-0.04648 0.485273,-0.09508 0.569621,-0.108002 0.226217,-0.03465 1.41618,-0.314644 1.678999,-0.395067 0.124871,-0.03821 0.276332,-0.07929 0.33658,-0.09128 0.185,-0.03683 1.070811,-0.286846 1.117332,-0.31536 0.0241,-0.01477 0.08325,-0.03271 0.131451,-0.03986 0.191323,-0.02839 0.696879,-0.210503 0.942064,-0.339349 0.143381,-0.07535 0.297507,-0.301412 0.332437,-0.4876 0.06578,-0.350647 -0.104517,-0.681228 -0.435479,-0.845344 -0.200992,-0.09967 -0.228048,-0.102481 -0.501346,-0.05212 -0.158888,0.02928 -0.309724,0.06626 -0.335191,0.08218 -0.02547,0.01592 -0.08377,0.03478 -0.12956,0.0419 -0.04579,0.0071 -0.380991,0.100428 -0.744888,0.207345 -0.824693,0.242303 -1.888238,0.508476 -2.633393,0.659057 -0.313291,0.06331 -0.599196,0.126738 -0.635345,0.140952 -0.03615,0.01421 -0.07968,0.02299 -0.09673,0.0195 -0.01705,-0.0035 -0.174794,0.02273 -0.350535,0.05825 -0.175741,0.03552 -0.425757,0.07519 -0.555591,0.08815 -0.129834,0.01296 -0.253161,0.03413 -0.274061,0.04705 -0.0209,0.01292 -0.121707,0.03123 -0.224017,0.04069 -0.102309,0.0095 -0.521216,0.05736 -0.930905,0.106453 -0.409688,0.04909 -0.89277,0.0995 -1.073515,0.112027 -2.139628,0.148282 -3.625768,0.14735 -5.696202,-0.0036 -0.602354,-0.04391 -0.734269,-0.0575 -1.402142,-0.144464 -0.349441,-0.0455 -0.664923,-0.08418 -0.701072,-0.08596 -0.03615,-0.0018 -0.164125,-0.02411 -0.284391,-0.04963 -0.120267,-0.02552 -0.24287,-0.03711 -0.272453,-0.02576 -0.02958,0.01135 -0.06402,0.0041 -0.07652,-0.01614 -0.01933,-0.03128 -0.282461,-0.08019 -0.615419,-0.114388 -0.0482,-0.005 -0.117211,-0.02004 -0.15336,-0.03352 -0.03615,-0.01349 -0.322054,-0.07651 -0.635345,-0.140045 -0.748876,-0.151881 -1.81248,-0.417999 -2.633393,-0.658887 -0.363897,-0.106782 -0.699096,-0.199976 -0.744888,-0.207099 -0.04579,-0.0071 -0.102975,-0.02493 -0.127075,-0.03956 -0.0241,-0.01464 -0.157161,-0.0517 -0.295694,-0.08237 -0.416264,-0.09215 -0.752992,0.06069 -0.913814,0.414789 -0.179799,0.395879 -0.03987,0.800446 0.345543,0.999058 0.236222,0.12173 0.929691,0.352948 0.929691,0.30998 0,-0.01305 0.02465,-0.0038 0.05477,0.02056 0.05228,0.04227 0.922883,0.300537 1.106378,0.328206 0.0482,0.0073 0.112281,0.0286 0.142405,0.04739 0.03012,0.0188 0.07313,0.02284 0.09556,0.009 0.02243,-0.01386 0.05401,-0.0038 0.07016,0.02231 0.01615,0.02613 0.05632,0.03718 0.08926,0.02454 0.03294,-0.01264 0.07048,-0.0058 0.08343,0.01511 0.01947,0.03151 0.260001,0.09367 0.439343,0.113552 0.0241,0.0027 0.128856,0.02903 0.232792,0.05857 0.103936,0.02954 0.241959,0.06192 0.306718,0.07195 0.06476,0.01003 0.206474,0.0399 0.314921,0.06638 0.108447,0.02648 0.24647,0.05625 0.306718,0.06615 0.06025,0.0099 0.257425,0.04839 0.43817,0.08552 0.794213,0.163169 2.535802,0.414608 3.351996,0.483939 0.63678,0.05409 0.845263,0.07119 1.2926,0.10601 0.471978,0.03674 3.226824,0.021 4.206426,-0.02403 z m 8.336174,-4.830832 c 0.09037,-0.05619 0.164313,-0.13013 0.164313,-0.164314 0,-0.03418 0.01779,-0.06215 0.03953,-0.06215 0.05778,0 0.135888,-0.251365 0.134776,-0.433754 -0.0013,-0.219077 -0.138094,-0.498466 -0.300651,-0.614217 -0.07511,-0.05348 -0.136557,-0.08362 -0.136557,-0.06698 0,0.01664 -0.03261,0.0032 -0.07246,-0.02988 -0.06096,-0.05059 -1.68692,-0.06014 -10.242211,-0.06014 -5.94117,0 -10.206188,0.01642 -10.257384,0.03948 -0.0482,0.02171 -0.11401,0.04487 -0.146248,0.05146 -0.18023,0.03683 -0.398842,0.408152 -0.400502,0.680273 -0.0011,0.182389 0.07699,0.433754 0.134775,0.433754 0.02174,0 0.0372,0.01479 0.03434,0.03286 -0.03068,0.194317 0.12396,0.239087 0.947253,0.274236 0.385589,0.01646 5.02909,0.02804 10.31889,0.02573 l 9.617819,-0.0042 0.164314,-0.102162 z"
     id="path215" />
  <path
     style="fill:#1a1a1a;stroke-width:0.0438169"
     d="m 20.770873,41.131145 c -0.0075,-0.0075 -0.395475,-0.04272 -0.862098,-0.0782 -0.466623,-0.03548 -1.252616,-0.114515 -1.746652,-0.17564 -0.494036,-0.06112 -0.977118,-0.119839 -1.073515,-0.130477 -0.0964,-0.01064 -0.579479,-0.0984 -1.073515,-0.195039 -0.494037,-0.09663 -0.957401,-0.183002 -1.029699,-0.19193 -0.0723,-0.0089 -0.161027,-0.02798 -0.197176,-0.04233 -0.149298,-0.05929 -1.506227,-0.376541 -1.525991,-0.356778 -0.0118,0.0118 -0.04298,0.004 -0.0693,-0.01737 -0.02632,-0.02135 -0.294319,-0.111093 -0.59556,-0.199432 -1.509282,-0.442599 -2.004805,-0.642415 -2.295664,-0.925711 -0.191025,-0.186057 -0.4981364,-0.640475 -0.5367015,-0.79413 -0.01388,-0.0553 -0.040687,-0.100548 -0.059571,-0.100548 -0.018884,0 -0.031535,-0.265085 -0.028113,-0.589078 l 0.00622,-0.589077 0.2537188,-0.495392 c 0.2429177,-0.474303 0.2554097,-0.514977 0.2934407,-0.95547 0.08019,-0.928777 0.258015,-1.292614 1.070785,-2.190847 0.06484,-0.07166 0.25762,-0.950748 0.221358,-1.009422 -0.01228,-0.01987 -0.0043,-0.04725 0.01767,-0.06085 0.11384,-0.07036 -0.0115,-0.857674 -0.136538,-0.857674 -0.01841,0 -0.03348,-0.02367 -0.03348,-0.0526 0,-0.05364 -0.504694,-0.853496 -0.588983,-0.933443 -0.0255,-0.02419 -0.05218,-0.07122 -0.0593,-0.104523 -0.0071,-0.0333 -0.07119,-0.145229 -0.142405,-0.248729 -0.07121,-0.1035 -0.129472,-0.199819 -0.129472,-0.214041 0,-0.01422 0.07808,0.01398 0.173522,0.06267 0.09544,0.04869 0.228531,0.08847 0.295764,0.08841 0.131635,-1.18e-4 0.82703,-0.177626 1.042398,-0.266083 0.0723,-0.0297 0.156767,-0.05917 0.18771,-0.06551 0.086,-0.0176 1.293047,-0.369732 1.367792,-0.39902 0.03615,-0.01417 0.10516,-0.03158 0.153359,-0.0387 0.0482,-0.0071 0.412975,-0.09362 0.810614,-0.192221 2.947557,-0.730895 6.451851,-1.073218 9.464459,-0.924552 1.454119,0.07176 1.520729,0.07635 2.14703,0.14789 0.301242,0.03441 0.577289,0.06342 0.613437,0.06446 0.391705,0.01129 2.656382,0.432722 3.724441,0.693079 0.445837,0.108681 0.850048,0.203606 0.898247,0.210945 0.0482,0.0073 0.11721,0.02562 0.153359,0.04063 0.09265,0.03846 1.278692,0.387687 1.358325,0.399953 0.03615,0.0056 0.124879,0.03453 0.197177,0.06437 0.183838,0.07587 0.933943,0.265068 1.04627,0.263905 0.05113,-5.29e-4 0.17677,-0.039 0.279192,-0.08549 0.102422,-0.04649 0.186222,-0.0772 0.186222,-0.06824 0,0.01945 -0.63239,1.022424 -0.80154,1.271245 -0.06524,0.09597 -0.118616,0.199484 -0.118616,0.230039 0,0.03055 -0.01507,0.05555 -0.03348,0.05555 -0.01841,0 -0.06867,0.08122 -0.111674,0.180487 -0.05752,0.132763 -0.07196,0.245728 -0.05462,0.427215 0.01296,0.135701 0.02617,0.276304 0.02936,0.312453 0.01287,0.146184 0.172126,0.887537 0.200851,0.934976 0.01695,0.028 0.103594,0.129776 0.192533,0.226173 0.286368,0.310383 0.377558,0.433524 0.535724,0.723426 0.24373,0.446734 0.344189,0.798651 0.381369,1.335971 0.0324,0.468253 0.03915,0.491974 0.236702,0.832522 0.283827,0.489258 0.341319,0.714265 0.327238,1.280717 -0.01099,0.442133 -0.0201,0.483414 -0.163642,0.741672 -0.408367,0.734718 -0.658147,0.909093 -1.847073,1.289466 -0.397639,0.127217 -0.732839,0.242515 -0.744888,0.256219 -0.01205,0.0137 -0.07942,0.02908 -0.149721,0.03417 -0.0703,0.0051 -0.139308,0.02481 -0.153359,0.04382 -0.01405,0.01901 -0.0847,0.04087 -0.156998,0.04858 -0.0723,0.0077 -0.138064,0.03248 -0.146148,0.05504 -0.0081,0.02257 -0.03213,0.03026 -0.05343,0.01709 -0.03288,-0.02032 -1.115635,0.240773 -1.312109,0.316399 -0.03615,0.01391 -0.108567,0.03104 -0.160931,0.03806 -0.05236,0.007 -0.392141,0.0739 -0.755064,0.148631 -0.831407,0.171187 -2.091587,0.387982 -2.436001,0.419077 -0.144596,0.01305 -0.381207,0.04194 -0.525803,0.0642 -0.144596,0.02226 -0.410784,0.0518 -0.591529,0.06565 -0.180745,0.01385 -0.683544,0.05442 -1.117332,0.09014 -0.677912,0.05583 -4.205205,0.116627 -4.248601,0.07323 z m 2.999818,-0.777032 c 1.190685,-0.03079 1.453155,-0.04731 2.475658,-0.155812 1.00277,-0.106412 1.812979,-0.220906 2.607108,-0.368422 0.32534,-0.06043 0.640822,-0.118373 0.701071,-0.128753 0.801659,-0.138117 3.728493,-0.902211 3.917595,-1.022748 0.02631,-0.01677 0.06263,-0.03326 0.0807,-0.03664 0.01807,-0.0034 0.04272,-0.01108 0.05477,-0.0171 0.0243,-0.01215 0.02481,-0.01228 0.240993,-0.06243 0.08435,-0.01957 0.192795,-0.05692 0.240993,-0.08302 0.0482,-0.02609 0.127069,-0.05388 0.175268,-0.06175 0.129336,-0.02112 0.622824,-0.258619 0.758598,-0.365086 0.170751,-0.133895 0.223979,-0.253408 0.22573,-0.506831 0.0024,-0.353883 -0.141235,-0.610712 -0.422781,-0.755717 -0.170454,-0.08779 -0.496622,-0.06053 -0.846357,0.07073 -0.03615,0.01357 -0.08606,0.02917 -0.110923,0.03468 -0.02486,0.0055 -0.389635,0.119395 -0.810614,0.253091 -0.929647,0.29524 -1.510969,0.463099 -2.233283,0.644868 -0.568906,0.143164 -2.075945,0.479231 -2.190847,0.488555 -0.03615,0.0029 -0.341772,0.05259 -0.679163,0.110354 -0.33739,0.05776 -0.643013,0.106387 -0.679162,0.108056 -0.03615,0.0017 -0.28262,0.0298 -0.547712,0.06252 -1.524866,0.188207 -2.417537,0.238449 -4.16261,0.234285 -1.406763,-0.0034 -1.864643,-0.01852 -3.089094,-0.102298 -0.887267,-0.06071 -2.867695,-0.357126 -4.002726,-0.599104 -1.209801,-0.257918 -3.084333,-0.773713 -4.125317,-1.13512 -0.144596,-0.0502 -0.27276,-0.093 -0.28481,-0.09511 -0.01205,-0.0021 -0.0712,-0.02287 -0.131451,-0.04613 -0.153908,-0.05942 -0.540756,-0.0954 -0.671889,-0.06249 -0.161806,0.04061 -0.3737848,0.23535 -0.4470459,0.410688 -0.092469,0.22131 -0.081976,0.573024 0.022193,0.743868 0.054024,0.0886 0.1851029,0.19106 0.3526249,0.275624 0.233124,0.117681 1.68475,0.628016 1.91018,0.671544 0.0455,0.0088 0.112297,0.02786 0.148446,0.0424 0.208824,0.08396 1.621353,0.455757 2.190848,0.576662 0.06025,0.01279 0.277142,0.06128 0.481986,0.107742 0.204844,0.04647 0.431597,0.09462 0.503895,0.107015 0.0723,0.01239 0.328627,0.06188 0.56962,0.10998 0.240993,0.0481 0.51704,0.09757 0.613437,0.109929 0.0964,0.01236 0.293574,0.0431 0.43817,0.0683 0.327123,0.05702 1.176217,0.165609 1.555501,0.198936 0.156646,0.01376 0.334104,0.03358 0.394353,0.04404 0.06025,0.01046 0.267283,0.03013 0.460077,0.04372 0.192795,0.01359 0.488559,0.03618 0.657255,0.05021 0.754938,0.06276 1.537085,0.09134 2.103213,0.07685 0.33739,-0.0086 1.037366,-0.02666 1.555501,-0.04006 z m -0.350535,-3.355381 c 0.951923,-0.02179 1.849075,-0.05136 1.993671,-0.06572 0.144596,-0.01436 0.292478,-0.0257 0.328627,-0.0252 0.03615,4.95e-4 0.469936,-0.04714 0.963972,-0.105866 0.79138,-0.09407 1.022156,-0.127231 1.489777,-0.214095 0.06025,-0.01119 0.188412,-0.03163 0.28481,-0.04542 0.0964,-0.01379 0.23442,-0.03364 0.306718,-0.04412 0.113953,-0.01651 0.342556,-0.06126 0.657254,-0.128661 0.0482,-0.01032 0.167043,-0.03008 0.264098,-0.04391 0.09706,-0.01383 0.570278,-0.123598 1.051606,-0.243936 0.481329,-0.120337 0.914579,-0.227927 0.962777,-0.239088 0.170321,-0.03944 1.052519,-0.288216 1.117332,-0.315082 0.03615,-0.01498 0.09149,-0.03254 0.122986,-0.03902 0.217905,-0.04482 0.696835,-0.214226 0.890058,-0.314823 0.569023,-0.296249 0.560787,-1.071066 -0.01443,-1.358069 -0.233011,-0.116259 -0.286304,-0.118951 -0.604256,-0.03052 -0.132546,0.03686 -0.276598,0.07514 -0.320115,0.08507 -0.04352,0.0099 -0.418152,0.115573 -0.832522,0.234774 -1.045056,0.30063 -3.058896,0.788206 -3.316691,0.803012 -0.03615,0.0021 -0.203749,0.03115 -0.372444,0.0646 -0.168695,0.03345 -0.414538,0.07188 -0.546316,0.08539 -0.131779,0.01351 -0.27214,0.04198 -0.311912,0.06326 -0.03977,0.02129 -0.08058,0.03043 -0.09069,0.02032 -0.01011,-0.01011 -0.149086,1.31e-4 -0.30884,0.02276 -2.276906,0.322449 -5.075542,0.393146 -7.549446,0.190707 -0.168695,-0.0138 -0.395448,-0.03208 -0.503895,-0.04061 -0.108446,-0.0085 -0.491742,-0.0555 -0.851768,-0.104371 -0.360026,-0.04887 -0.663312,-0.08014 -0.673969,-0.06948 -0.01066,0.01066 -0.05405,8.19e-4 -0.09643,-0.02186 -0.04238,-0.02268 -0.182741,-0.05124 -0.311911,-0.06345 -0.129171,-0.01222 -0.316273,-0.04182 -0.415783,-0.06579 -0.09951,-0.02397 -0.26711,-0.05409 -0.372444,-0.06692 -0.543334,-0.06623 -2.719344,-0.592532 -3.719435,-0.899596 -0.229303,-0.0704 -0.456055,-0.134093 -0.503894,-0.141528 -0.04784,-0.0074 -0.106698,-0.02555 -0.130798,-0.04025 -0.0241,-0.0147 -0.155855,-0.04976 -0.292791,-0.0779 -0.538098,-0.110596 -0.926979,0.159312 -0.984608,0.683381 -0.02721,0.247481 0.110277,0.547437 0.305581,0.666667 0.133529,0.08152 0.805957,0.332885 1.006868,0.376389 0.05302,0.01148 0.315081,0.08888 0.582356,0.171997 0.267275,0.08312 0.553181,0.163425 0.635346,0.178463 0.210548,0.03853 0.230324,0.04413 0.291795,0.08253 0.03013,0.01882 0.07313,0.02287 0.09556,0.009 0.02243,-0.01387 0.05247,-0.0063 0.06675,0.01679 0.01428,0.0231 0.119156,0.05696 0.233066,0.07525 0.241839,0.03883 0.205071,0.03084 0.426194,0.09251 0.0964,0.02688 0.234421,0.05924 0.306719,0.07191 0.0723,0.01267 0.210321,0.04203 0.306718,0.06526 0.0964,0.02323 0.234421,0.05238 0.306719,0.06479 0.0723,0.01241 0.338486,0.06403 0.591529,0.114711 0.802253,0.160682 2.375535,0.383456 3.264362,0.462228 0.168695,0.01495 0.405307,0.03651 0.525803,0.04791 0.289898,0.02743 1.420769,0.08633 1.752678,0.09129 0.144596,0.0022 1.041748,-0.0139 1.993671,-0.03568 z m 9.519231,-4.851624 c 0.09037,-0.05619 0.164313,-0.12168 0.164313,-0.145535 0,-0.02386 0.0284,-0.07178 0.06312,-0.106492 0.09314,-0.09314 0.132015,-0.436417 0.07207,-0.636479 -0.04986,-0.166419 -0.338299,-0.507784 -0.38749,-0.458593 -0.01345,0.01345 -0.05394,-2.6e-5 -0.08999,-0.02994 -0.05177,-0.04297 -2.201808,-0.05439 -10.235288,-0.05439 -5.94117,0 -10.206186,0.01642 -10.257382,0.03948 -0.0482,0.02171 -0.11401,0.04487 -0.146248,0.05146 -0.173013,0.03535 -0.401464,0.424099 -0.401464,0.683153 0,0.180918 0.07874,0.430874 0.135737,0.430874 0.02174,0 0.03953,0.03992 0.03953,0.08872 0,0.14352 0.190282,0.186641 0.963973,0.21845 0.397638,0.01635 5.041139,0.02786 10.31889,0.02559 l 9.59591,-0.0041 0.164314,-0.102162 z"
     id="path217" />
</svg>
