<?xml version="1.0" encoding="UTF-8" standalone="no"?>
<svg
   version="1.1"
   width="45"
   height="45"
   id="svg26"
   xmlns="http://www.w3.org/2000/svg"
   xmlns:svg="http://www.w3.org/2000/svg">
  <defs
     id="defs30" />
  <g
     style="opacity:1;fill:#000000;fill-opacity:1;fill-rule:evenodd;stroke:#000000;stroke-width:1.5;stroke-linecap:round;stroke-linejoin:round;stroke-miterlimit:4;stroke-dasharray:none;stroke-opacity:1"
     transform="translate(0,0.3)"
     id="g24">
    <path
       d="M 9,39 H 36 V 36 H 9 Z"
       style="stroke-linecap:butt"
       id="path2" />
    <path
       d="M 12.5,32 14,29.5 h 17 l 1.5,2.5 z"
       style="stroke-linecap:butt"
       id="path4" />
    <path
       d="m 12,36 v -4 h 21 v 4 z"
       style="stroke-linecap:butt"
       id="path6" />
    <path
       d="m 14,29.5 v -13 h 17 v 13 z"
       style="stroke-linecap:butt;stroke-linejoin:miter"
       id="path8" />
    <path
       d="M 14,16.5 11,14 h 23 l -3,2.5 z"
       style="stroke-linecap:butt"
       id="path10" />
    <path
       d="M 11,14 V 9 h 4 v 2 h 5 V 9 h 5 v 2 h 5 V 9 h 4 v 5 z"
       style="stroke-linecap:butt"
       id="path12" />
    <path
       d="m 12,35.5 h 21 v 0"
       style="fill:none;stroke:#ffffff;stroke-width:1;stroke-linejoin:miter"
       id="path14" />
    <path
       d="M 13,31.5 H 32"
       style="fill:none;stroke:#ffffff;stroke-width:1;stroke-linejoin:miter"
       id="path16" />
    <path
       d="M 14,29.5 H 31"
       style="fill:none;stroke:#ffffff;stroke-width:1;stroke-linejoin:miter"
       id="path18" />
    <path
       d="M 14,16.5 H 31"
       style="fill:none;stroke:#ffffff;stroke-width:1;stroke-linejoin:miter"
       id="path20" />
    <path
       d="M 11,14 H 34"
       style="fill:none;stroke:#ffffff;stroke-width:1;stroke-linejoin:miter"
       id="path22" />
  </g>
  <path
     style="fill:#1a1a1a;stroke-width:0.0438169"
     d="M 8.8344948,40.004777 C 8.6413755,39.959182 8.477812,39.834425 8.369036,39.649753 8.285436,39.507822 8.281402,39.422169 8.281402,37.788902 v -1.712071 l 0.1087898,-0.158768 c 0.059834,-0.08732 0.1808247,-0.199254 0.2688675,-0.248737 0.1509127,-0.08482 0.2306072,-0.08997 1.3919407,-0.08997 h 1.231863 v -1.746198 c 0,-1.73874 4.2e-4,-1.746816 0.09859,-1.891053 0.14007,-0.205806 0.309247,-0.318191 0.522389,-0.347026 l 0.184589,-0.02497 0.581444,-0.963973 0.581444,-0.963972 -6.31e-4,-6.265823 -6.31e-4,-6.265823 -1.417987,-1.174664 c -0.979464,-0.811388 -1.439785,-1.220595 -1.488467,-1.323185 -0.06282,-0.132378 -0.06918,-0.44324 -0.05855,-2.859932 l 0.01193,-2.7114112 0.122762,-0.1609222 c 0.231166,-0.3030245 0.136138,-0.2922809 2.585233,-0.2922809 h 2.208452 l 0.147842,0.099631 c 0.08131,0.054797 0.192676,0.1661597 0.247473,0.2474729 0.09384,0.1392489 0.09963,0.1907619 0.09963,0.8862504 v 0.738408 h 1.770893 1.770893 l 0.01465,-0.7372807 c 0.01417,-0.7132353 0.01845,-0.7430245 0.13123,-0.9133098 0.221434,-0.3343296 0.09429,-0.3211738 3.103959,-0.3211738 3.009668,0 2.882525,-0.013156 3.103959,0.3211738 0.112783,0.1702853 0.117064,0.2000745 0.131234,0.9133077 l 0.01465,0.7372808 h 1.770893 1.770893 V 9.8214749 c 0,-0.6954885 0.0058,-0.7470015 0.09963,-0.8862504 0.0548,-0.081313 0.16616,-0.192676 0.247473,-0.2474729 l 0.147842,-0.099631 h 2.208452 c 2.449095,0 2.354067,-0.010744 2.585233,0.2922809 l 0.122762,0.1609222 0.01193,2.7082153 c 0.0098,2.214992 9.9e-4,2.734318 -0.04812,2.851539 -0.04313,0.102946 -0.462462,0.476616 -1.488461,1.326381 l -1.428416,1.183057 -6.31e-4,6.265823 -6.31e-4,6.265823 0.581444,0.963972 0.581444,0.963973 0.184589,0.02497 c 0.213142,0.02884 0.382319,0.14122 0.522389,0.347026 0.09817,0.144237 0.09859,0.152313 0.09859,1.891053 l -2e-6,1.746198 H 34.949 c 1.190016,0 1.237721,0.0033 1.404307,0.09692 0.09484,0.05331 0.215835,0.166682 0.268868,0.251948 0.09505,0.152828 0.09642,0.179282 0.09642,1.863889 0,1.630056 -0.004,1.715722 -0.08763,1.85764 -0.112741,0.191404 -0.269928,0.30701 -0.485377,0.356979 -0.213186,0.04944 -27.1015446,0.04752 -27.3110922,-0.002 z M 33.341231,36.196048 c 0.249922,-0.234792 0.221824,-0.635058 -0.05779,-0.823219 l -0.148885,-0.10019 H 22.5 11.865443 l -0.148885,0.10019 c -0.331445,0.223041 -0.28986,0.76219 0.0702,0.910133 0.0482,0.01981 4.892216,0.03227 10.764485,0.02769 l 10.676851,-0.0083 z m -1.137779,-3.92121 c 0.383194,-0.160109 0.425644,-0.705418 0.07121,-0.914787 -0.11825,-0.06985 -0.759303,-0.07475 -9.774664,-0.07475 -9.015361,0 -9.656414,0.0049 -9.774664,0.07475 -0.349497,0.206453 -0.312838,0.750061 0.06156,0.912918 0.211261,0.09189 19.196719,0.09372 19.416552,0.0019 z M 31.266874,30.24657 c 0.288756,-0.170573 0.330481,-0.575475 0.08464,-0.821321 L 31.217886,29.291626 H 22.5 13.782114 l -0.133624,0.133623 c -0.243144,0.243145 -0.205271,0.643912 0.07741,0.819186 0.112141,0.06953 0.703302,0.07464 8.767334,0.07572 8.073066,0.0011 8.655487,-0.0038 8.773635,-0.07359 z m 0.03083,-13.007263 c 0.212293,-0.148695 0.283399,-0.443403 0.163109,-0.676019 -0.147859,-0.285927 0.619033,-0.263385 -8.960815,-0.263385 -9.579848,0 -8.812956,-0.02254 -8.960815,0.263385 -0.12029,0.232616 -0.04918,0.527324 0.163109,0.676019 0.08768,0.06141 0.984827,0.06838 8.797706,0.06838 7.812879,0 8.710029,-0.007 8.797706,-0.06838 z m 3.059159,-2.578158 c 0.121557,-0.121557 0.148977,-0.182444 0.148977,-0.330803 0,-0.226913 -0.08809,-0.402362 -0.243888,-0.485742 -0.181495,-0.09713 -23.342413,-0.09713 -23.523908,0 -0.155796,0.08338 -0.243888,0.258829 -0.243888,0.485742 0,0.148359 0.02742,0.209246 0.148977,0.330803 l 0.148978,0.148978 H 22.5 34.207887 Z"
     id="path205" />
</svg>
